<svg xmlns="http://www.w3.org/2000/svg" xmlns:xlink="http://www.w3.org/1999/xlink" width="816" zoomAndPan="magnify" viewBox="0 0 612 197.999996" height="264" preserveAspectRatio="xMidYMid meet" version="1.0"><defs><filter x="0%" y="0%" width="100%" height="100%" id="f79b5c21e0"><feColorMatrix values="0 0 0 0 1 0 0 0 0 1 0 0 0 0 1 0 0 0 1 0" color-interpolation-filters="sRGB"/></filter><g/><clipPath id="8ae544d79d"><path d="M 352.070312 22.738281 L 612 22.738281 L 612 174.988281 L 352.070312 174.988281 Z M 352.070312 22.738281 " clip-rule="nonzero"/></clipPath><clipPath id="eba882aa37"><path d="M 0.0703125 0.738281 L 259.992188 0.738281 L 259.992188 152.988281 L 0.0703125 152.988281 Z M 0.0703125 0.738281 " clip-rule="nonzero"/></clipPath><clipPath id="2dd51f9eba"><rect x="0" width="260" y="0" height="153"/></clipPath><clipPath id="e11ab1d25b"><rect x="0" width="298" y="0" height="164"/></clipPath><clipPath id="085281e4aa"><path d="M 0.355469 0 L 553 0 L 553 198 L 0.355469 198 Z M 0.355469 0 " clip-rule="nonzero"/></clipPath><clipPath id="c2f8c8b324"><path d="M 0.355469 0 L 553 0 L 553 198 L 0.355469 198 Z M 0.355469 0 " clip-rule="nonzero"/></clipPath><clipPath id="0edd2a2af1"><path d="M 0.355469 0 L 553 0 L 553 198 L 0.355469 198 Z M 0.355469 0 " clip-rule="nonzero"/></clipPath><linearGradient x1="-81.111632" gradientTransform="matrix(1.229484, 0, 0, 1.22913, 236.41444, 11.855287)" y1="-120.533632" x2="224.180474" gradientUnits="userSpaceOnUse" y2="184.758473" id="ace15939c6"><stop stop-opacity="1" stop-color="rgb(100%, 21.569824%, 21.569824%)" offset="0"/><stop stop-opacity="1" stop-color="rgb(100%, 21.569824%, 21.569824%)" offset="0.25"/><stop stop-opacity="1" stop-color="rgb(100%, 21.569824%, 21.569824%)" offset="0.263829"/><stop stop-opacity="1" stop-color="rgb(100%, 21.569824%, 21.569824%)" offset="0.3125"/><stop stop-opacity="1" stop-color="rgb(100%, 21.569824%, 21.569824%)" offset="0.328125"/><stop stop-opacity="1" stop-color="rgb(100%, 21.682739%, 21.580505%)" offset="0.335938"/><stop stop-opacity="1" stop-color="rgb(100%, 22.016907%, 21.612549%)" offset="0.339844"/><stop stop-opacity="1" stop-color="rgb(100%, 22.236633%, 21.635437%)" offset="0.34375"/><stop stop-opacity="1" stop-color="rgb(100%, 22.45636%, 21.656799%)" offset="0.347656"/><stop stop-opacity="1" stop-color="rgb(100%, 22.676086%, 21.678162%)" offset="0.351562"/><stop stop-opacity="1" stop-color="rgb(100%, 22.895813%, 21.699524%)" offset="0.355469"/><stop stop-opacity="1" stop-color="rgb(100%, 23.11554%, 21.722412%)" offset="0.359375"/><stop stop-opacity="1" stop-color="rgb(100%, 23.335266%, 21.743774%)" offset="0.363281"/><stop stop-opacity="1" stop-color="rgb(100%, 23.554993%, 21.765137%)" offset="0.367188"/><stop stop-opacity="1" stop-color="rgb(100%, 23.773193%, 21.786499%)" offset="0.371094"/><stop stop-opacity="1" stop-color="rgb(100%, 23.99292%, 21.809387%)" offset="0.375"/><stop stop-opacity="1" stop-color="rgb(100%, 24.212646%, 21.83075%)" offset="0.378906"/><stop stop-opacity="1" stop-color="rgb(100%, 24.432373%, 21.852112%)" offset="0.382812"/><stop stop-opacity="1" stop-color="rgb(100%, 24.6521%, 21.873474%)" offset="0.386719"/><stop stop-opacity="1" stop-color="rgb(100%, 24.871826%, 21.896362%)" offset="0.390625"/><stop stop-opacity="1" stop-color="rgb(100%, 25.091553%, 21.917725%)" offset="0.394531"/><stop stop-opacity="1" stop-color="rgb(100%, 25.311279%, 21.939087%)" offset="0.398438"/><stop stop-opacity="1" stop-color="rgb(100%, 25.531006%, 21.960449%)" offset="0.402344"/><stop stop-opacity="1" stop-color="rgb(100%, 25.750732%, 21.983337%)" offset="0.40625"/><stop stop-opacity="1" stop-color="rgb(100%, 25.970459%, 22.0047%)" offset="0.410156"/><stop stop-opacity="1" stop-color="rgb(100%, 26.190186%, 22.026062%)" offset="0.414063"/><stop stop-opacity="1" stop-color="rgb(100%, 26.409912%, 22.047424%)" offset="0.417969"/><stop stop-opacity="1" stop-color="rgb(100%, 26.629639%, 22.068787%)" offset="0.421875"/><stop stop-opacity="1" stop-color="rgb(100%, 26.849365%, 22.090149%)" offset="0.425781"/><stop stop-opacity="1" stop-color="rgb(100%, 27.069092%, 22.113037%)" offset="0.429688"/><stop stop-opacity="1" stop-color="rgb(100%, 27.288818%, 22.134399%)" offset="0.433594"/><stop stop-opacity="1" stop-color="rgb(100%, 27.508545%, 22.155762%)" offset="0.4375"/><stop stop-opacity="1" stop-color="rgb(100%, 27.728271%, 22.177124%)" offset="0.441406"/><stop stop-opacity="1" stop-color="rgb(100%, 27.947998%, 22.200012%)" offset="0.445312"/><stop stop-opacity="1" stop-color="rgb(100%, 28.167725%, 22.221375%)" offset="0.449219"/><stop stop-opacity="1" stop-color="rgb(100%, 28.387451%, 22.242737%)" offset="0.453125"/><stop stop-opacity="1" stop-color="rgb(100%, 28.607178%, 22.264099%)" offset="0.457031"/><stop stop-opacity="1" stop-color="rgb(100%, 28.826904%, 22.286987%)" offset="0.460938"/><stop stop-opacity="1" stop-color="rgb(100%, 29.046631%, 22.30835%)" offset="0.464844"/><stop stop-opacity="1" stop-color="rgb(100%, 29.266357%, 22.329712%)" offset="0.46875"/><stop stop-opacity="1" stop-color="rgb(100%, 29.484558%, 22.351074%)" offset="0.472656"/><stop stop-opacity="1" stop-color="rgb(100%, 29.704285%, 22.373962%)" offset="0.476562"/><stop stop-opacity="1" stop-color="rgb(100%, 29.924011%, 22.395325%)" offset="0.480469"/><stop stop-opacity="1" stop-color="rgb(100%, 30.143738%, 22.416687%)" offset="0.484375"/><stop stop-opacity="1" stop-color="rgb(100%, 30.363464%, 22.438049%)" offset="0.488281"/><stop stop-opacity="1" stop-color="rgb(100%, 30.583191%, 22.460938%)" offset="0.492188"/><stop stop-opacity="1" stop-color="rgb(100%, 30.802917%, 22.4823%)" offset="0.496094"/><stop stop-opacity="1" stop-color="rgb(100%, 31.022644%, 22.503662%)" offset="0.5"/><stop stop-opacity="1" stop-color="rgb(100%, 31.242371%, 22.525024%)" offset="0.503906"/><stop stop-opacity="1" stop-color="rgb(100%, 31.462097%, 22.547913%)" offset="0.507812"/><stop stop-opacity="1" stop-color="rgb(100%, 31.681824%, 22.569275%)" offset="0.511719"/><stop stop-opacity="1" stop-color="rgb(100%, 31.90155%, 22.590637%)" offset="0.515625"/><stop stop-opacity="1" stop-color="rgb(100%, 32.121277%, 22.612%)" offset="0.519531"/><stop stop-opacity="1" stop-color="rgb(100%, 32.341003%, 22.634888%)" offset="0.523438"/><stop stop-opacity="1" stop-color="rgb(100%, 32.56073%, 22.65625%)" offset="0.527344"/><stop stop-opacity="1" stop-color="rgb(100%, 32.780457%, 22.677612%)" offset="0.53125"/><stop stop-opacity="1" stop-color="rgb(100%, 33.000183%, 22.698975%)" offset="0.535156"/><stop stop-opacity="1" stop-color="rgb(100%, 33.21991%, 22.720337%)" offset="0.539062"/><stop stop-opacity="1" stop-color="rgb(100%, 33.439636%, 22.741699%)" offset="0.542969"/><stop stop-opacity="1" stop-color="rgb(100%, 33.659363%, 22.764587%)" offset="0.546875"/><stop stop-opacity="1" stop-color="rgb(100%, 33.879089%, 22.78595%)" offset="0.550781"/><stop stop-opacity="1" stop-color="rgb(100%, 34.098816%, 22.807312%)" offset="0.554688"/><stop stop-opacity="1" stop-color="rgb(100%, 34.318542%, 22.828674%)" offset="0.558594"/><stop stop-opacity="1" stop-color="rgb(100%, 34.538269%, 22.851562%)" offset="0.5625"/><stop stop-opacity="1" stop-color="rgb(100%, 34.757996%, 22.872925%)" offset="0.566406"/><stop stop-opacity="1" stop-color="rgb(100%, 34.977722%, 22.894287%)" offset="0.570313"/><stop stop-opacity="1" stop-color="rgb(100%, 35.195923%, 22.915649%)" offset="0.574219"/><stop stop-opacity="1" stop-color="rgb(100%, 35.415649%, 22.938538%)" offset="0.578125"/><stop stop-opacity="1" stop-color="rgb(100%, 35.635376%, 22.9599%)" offset="0.582031"/><stop stop-opacity="1" stop-color="rgb(100%, 35.855103%, 22.981262%)" offset="0.585938"/><stop stop-opacity="1" stop-color="rgb(100%, 36.074829%, 23.002625%)" offset="0.589844"/><stop stop-opacity="1" stop-color="rgb(100%, 36.294556%, 23.025513%)" offset="0.59375"/><stop stop-opacity="1" stop-color="rgb(100%, 36.514282%, 23.046875%)" offset="0.597656"/><stop stop-opacity="1" stop-color="rgb(100%, 36.734009%, 23.068237%)" offset="0.601563"/><stop stop-opacity="1" stop-color="rgb(100%, 36.953735%, 23.0896%)" offset="0.605469"/><stop stop-opacity="1" stop-color="rgb(100%, 37.173462%, 23.112488%)" offset="0.609375"/><stop stop-opacity="1" stop-color="rgb(100%, 37.393188%, 23.13385%)" offset="0.613281"/><stop stop-opacity="1" stop-color="rgb(100%, 37.612915%, 23.155212%)" offset="0.617188"/><stop stop-opacity="1" stop-color="rgb(100%, 37.832642%, 23.176575%)" offset="0.621094"/><stop stop-opacity="1" stop-color="rgb(100%, 38.052368%, 23.199463%)" offset="0.625"/><stop stop-opacity="1" stop-color="rgb(100%, 38.272095%, 23.220825%)" offset="0.628906"/><stop stop-opacity="1" stop-color="rgb(100%, 38.491821%, 23.242188%)" offset="0.632813"/><stop stop-opacity="1" stop-color="rgb(100%, 38.711548%, 23.26355%)" offset="0.636719"/><stop stop-opacity="1" stop-color="rgb(100%, 38.931274%, 23.286438%)" offset="0.640625"/><stop stop-opacity="1" stop-color="rgb(100%, 39.151001%, 23.3078%)" offset="0.644531"/><stop stop-opacity="1" stop-color="rgb(100%, 39.370728%, 23.329163%)" offset="0.648437"/><stop stop-opacity="1" stop-color="rgb(100%, 39.590454%, 23.350525%)" offset="0.652344"/><stop stop-opacity="1" stop-color="rgb(100%, 39.810181%, 23.371887%)" offset="0.65625"/><stop stop-opacity="1" stop-color="rgb(100%, 40.029907%, 23.39325%)" offset="0.660156"/><stop stop-opacity="1" stop-color="rgb(100%, 40.249634%, 23.416138%)" offset="0.664063"/><stop stop-opacity="1" stop-color="rgb(100%, 40.467834%, 23.4375%)" offset="0.667969"/><stop stop-opacity="1" stop-color="rgb(100%, 40.687561%, 23.458862%)" offset="0.671875"/><stop stop-opacity="1" stop-color="rgb(100%, 40.907288%, 23.480225%)" offset="0.675781"/><stop stop-opacity="1" stop-color="rgb(100%, 41.127014%, 23.503113%)" offset="0.679687"/><stop stop-opacity="1" stop-color="rgb(100%, 41.346741%, 23.524475%)" offset="0.683594"/><stop stop-opacity="1" stop-color="rgb(100%, 41.566467%, 23.545837%)" offset="0.6875"/><stop stop-opacity="1" stop-color="rgb(100%, 41.786194%, 23.5672%)" offset="0.691406"/><stop stop-opacity="1" stop-color="rgb(100%, 42.00592%, 23.590088%)" offset="0.695312"/><stop stop-opacity="1" stop-color="rgb(100%, 42.225647%, 23.61145%)" offset="0.699219"/><stop stop-opacity="1" stop-color="rgb(100%, 42.445374%, 23.632812%)" offset="0.703125"/><stop stop-opacity="1" stop-color="rgb(100%, 42.6651%, 23.654175%)" offset="0.707031"/><stop stop-opacity="1" stop-color="rgb(100%, 42.884827%, 23.677063%)" offset="0.710937"/><stop stop-opacity="1" stop-color="rgb(100%, 43.104553%, 23.698425%)" offset="0.714844"/><stop stop-opacity="1" stop-color="rgb(100%, 43.32428%, 23.719788%)" offset="0.71875"/><stop stop-opacity="1" stop-color="rgb(100%, 43.544006%, 23.74115%)" offset="0.722656"/><stop stop-opacity="1" stop-color="rgb(100%, 43.763733%, 23.764038%)" offset="0.726562"/><stop stop-opacity="1" stop-color="rgb(100%, 43.983459%, 23.7854%)" offset="0.730469"/><stop stop-opacity="1" stop-color="rgb(100%, 44.203186%, 23.806763%)" offset="0.734375"/><stop stop-opacity="1" stop-color="rgb(100%, 44.422913%, 23.828125%)" offset="0.738281"/><stop stop-opacity="1" stop-color="rgb(100%, 44.642639%, 23.851013%)" offset="0.742187"/><stop stop-opacity="1" stop-color="rgb(100%, 44.862366%, 23.872375%)" offset="0.746094"/><stop stop-opacity="1" stop-color="rgb(100%, 45.082092%, 23.893738%)" offset="0.75"/><stop stop-opacity="1" stop-color="rgb(100%, 45.301819%, 23.9151%)" offset="0.753906"/><stop stop-opacity="1" stop-color="rgb(100%, 45.521545%, 23.937988%)" offset="0.757812"/><stop stop-opacity="1" stop-color="rgb(100%, 45.741272%, 23.959351%)" offset="0.761719"/><stop stop-opacity="1" stop-color="rgb(100%, 45.960999%, 23.980713%)" offset="0.765625"/><stop stop-opacity="1" stop-color="rgb(100%, 46.179199%, 24.002075%)" offset="0.769531"/><stop stop-opacity="1" stop-color="rgb(100%, 46.398926%, 24.023438%)" offset="0.773437"/><stop stop-opacity="1" stop-color="rgb(100%, 46.618652%, 24.0448%)" offset="0.777344"/><stop stop-opacity="1" stop-color="rgb(100%, 46.838379%, 24.067688%)" offset="0.78125"/><stop stop-opacity="1" stop-color="rgb(100%, 47.058105%, 24.08905%)" offset="0.785156"/><stop stop-opacity="1" stop-color="rgb(100%, 47.277832%, 24.110413%)" offset="0.789062"/><stop stop-opacity="1" stop-color="rgb(100%, 47.497559%, 24.131775%)" offset="0.792969"/><stop stop-opacity="1" stop-color="rgb(100%, 47.717285%, 24.154663%)" offset="0.796875"/><stop stop-opacity="1" stop-color="rgb(100%, 47.937012%, 24.176025%)" offset="0.800781"/><stop stop-opacity="1" stop-color="rgb(100%, 48.156738%, 24.197388%)" offset="0.804687"/><stop stop-opacity="1" stop-color="rgb(100%, 48.376465%, 24.21875%)" offset="0.808594"/><stop stop-opacity="1" stop-color="rgb(100%, 48.596191%, 24.241638%)" offset="0.8125"/><stop stop-opacity="1" stop-color="rgb(100%, 48.815918%, 24.263%)" offset="0.816406"/><stop stop-opacity="1" stop-color="rgb(100%, 49.035645%, 24.284363%)" offset="0.820312"/><stop stop-opacity="1" stop-color="rgb(100%, 49.255371%, 24.305725%)" offset="0.824219"/><stop stop-opacity="1" stop-color="rgb(100%, 49.475098%, 24.328613%)" offset="0.828125"/><stop stop-opacity="1" stop-color="rgb(100%, 49.694824%, 24.349976%)" offset="0.832031"/><stop stop-opacity="1" stop-color="rgb(100%, 49.914551%, 24.371338%)" offset="0.835937"/><stop stop-opacity="1" stop-color="rgb(100%, 50.134277%, 24.3927%)" offset="0.839844"/><stop stop-opacity="1" stop-color="rgb(100%, 50.354004%, 24.415588%)" offset="0.84375"/><stop stop-opacity="1" stop-color="rgb(100%, 50.57373%, 24.436951%)" offset="0.847656"/><stop stop-opacity="1" stop-color="rgb(100%, 50.793457%, 24.458313%)" offset="0.851562"/><stop stop-opacity="1" stop-color="rgb(100%, 51.013184%, 24.479675%)" offset="0.855469"/><stop stop-opacity="1" stop-color="rgb(100%, 51.23291%, 24.502563%)" offset="0.859375"/><stop stop-opacity="1" stop-color="rgb(100%, 51.452637%, 24.523926%)" offset="0.863281"/><stop stop-opacity="1" stop-color="rgb(100%, 51.672363%, 24.545288%)" offset="0.867188"/><stop stop-opacity="1" stop-color="rgb(100%, 51.890564%, 24.56665%)" offset="0.871094"/><stop stop-opacity="1" stop-color="rgb(100%, 52.110291%, 24.589539%)" offset="0.875"/><stop stop-opacity="1" stop-color="rgb(100%, 52.330017%, 24.610901%)" offset="0.878906"/><stop stop-opacity="1" stop-color="rgb(100%, 52.549744%, 24.632263%)" offset="0.882812"/><stop stop-opacity="1" stop-color="rgb(100%, 52.76947%, 24.653625%)" offset="0.886719"/><stop stop-opacity="1" stop-color="rgb(100%, 52.989197%, 24.674988%)" offset="0.890625"/><stop stop-opacity="1" stop-color="rgb(100%, 53.158569%, 24.691772%)" offset="0.90625"/><stop stop-opacity="1" stop-color="rgb(100%, 53.329468%, 24.708557%)" offset="0.9375"/><stop stop-opacity="1" stop-color="rgb(100%, 53.329468%, 24.708557%)" offset="1"/></linearGradient><clipPath id="5204883f85"><rect x="0" width="553" y="0" height="198"/></clipPath><clipPath id="0a12a6f644"><path d="M 0.355469 0 L 553 0 L 553 198 L 0.355469 198 Z M 0.355469 0 " clip-rule="nonzero"/></clipPath><clipPath id="d99e8d310e"><rect x="0" width="553" y="0" height="198"/></clipPath><clipPath id="b34abb0ad6"><rect x="0" width="553" y="0" height="198"/></clipPath><mask id="2fec4abbbf"><g filter="url(#f79b5c21e0)"><g><g clip-path="url(#b34abb0ad6)"><g clip-path="url(#0a12a6f644)"><g><g clip-path="url(#d99e8d310e)"><g fill="#000000" fill-opacity="1"><g transform="translate(236.346561, 140.913941)"><g><path d="M 8.84375 -79.53125 C 8.84375 -82.601562 9.789062 -84.140625 11.6875 -84.140625 C 12.46875 -84.140625 13.3125 -83.84375 14.21875 -83.25 C 15.125 -82.65625 16.320312 -81.648438 17.8125 -80.234375 L 60.296875 -40.359375 L 60.296875 -79.53125 C 60.296875 -80.632812 60.550781 -81.421875 61.0625 -81.890625 C 61.570312 -82.359375 62.335938 -82.59375 63.359375 -82.59375 L 77.640625 -82.59375 C 79.765625 -82.59375 80.828125 -81.570312 80.828125 -79.53125 L 80.828125 -3.0625 C 80.828125 0 79.882812 1.53125 78 1.53125 C 77.207031 1.53125 76.359375 1.234375 75.453125 0.640625 C 74.554688 0.0546875 73.359375 -0.941406 71.859375 -2.359375 L 29.375 -42.25 L 29.375 -3.0625 C 29.375 -1.96875 29.117188 -1.179688 28.609375 -0.703125 C 28.097656 -0.234375 27.296875 0 26.203125 0 L 11.921875 0 C 10.898438 0 10.128906 -0.253906 9.609375 -0.765625 C 9.097656 -1.273438 8.84375 -2.039062 8.84375 -3.0625 Z M 8.84375 -79.53125 "/></g></g></g><g fill="#000000" fill-opacity="1"><g transform="translate(326.023858, 140.913941)"><g><path d="M 4.125 -28.671875 C 4.125 -34.578125 5.476562 -39.847656 8.1875 -44.484375 C 10.90625 -49.128906 14.679688 -52.75 19.515625 -55.34375 C 24.359375 -57.9375 29.890625 -59.234375 36.109375 -59.234375 C 42.328125 -59.234375 47.875 -57.9375 52.75 -55.34375 C 57.625 -52.75 61.414062 -49.148438 64.125 -44.546875 C 66.84375 -39.941406 68.203125 -34.726562 68.203125 -28.90625 C 68.203125 -23.082031 66.84375 -17.867188 64.125 -13.265625 C 61.414062 -8.671875 57.601562 -5.070312 52.6875 -2.46875 C 47.769531 0.125 42.203125 1.421875 35.984375 1.421875 C 29.773438 1.421875 24.25 0.144531 19.40625 -2.40625 C 14.570312 -4.96875 10.816406 -8.550781 8.140625 -13.15625 C 5.460938 -17.757812 4.125 -22.929688 4.125 -28.671875 Z M 35.984375 -16.40625 C 38.109375 -16.40625 40.078125 -16.9375 41.890625 -18 C 43.703125 -19.0625 45.15625 -20.535156 46.25 -22.421875 C 47.351562 -24.304688 47.90625 -26.46875 47.90625 -28.90625 C 47.90625 -31.34375 47.351562 -33.503906 46.25 -35.390625 C 45.15625 -37.285156 43.703125 -38.765625 41.890625 -39.828125 C 40.078125 -40.890625 38.109375 -41.421875 35.984375 -41.421875 C 33.859375 -41.421875 31.910156 -40.890625 30.140625 -39.828125 C 28.378906 -38.765625 26.984375 -37.285156 25.953125 -35.390625 C 24.929688 -33.503906 24.421875 -31.34375 24.421875 -28.90625 C 24.421875 -26.46875 24.929688 -24.304688 25.953125 -22.421875 C 26.984375 -20.535156 28.378906 -19.0625 30.140625 -18 C 31.910156 -16.9375 33.859375 -16.40625 35.984375 -16.40625 Z M 35.984375 -16.40625 "/></g></g></g><g fill="#000000" fill-opacity="1"><g transform="translate(397.765711, 140.913941)"><g><path d="M 1.421875 -54.984375 C 1.335938 -55.066406 1.234375 -55.285156 1.109375 -55.640625 C 0.992188 -55.992188 0.9375 -56.285156 0.9375 -56.515625 C 0.9375 -56.910156 1.09375 -57.222656 1.40625 -57.453125 C 1.726562 -57.691406 2.164062 -57.8125 2.71875 -57.8125 L 19.46875 -57.8125 C 20.414062 -57.8125 21.101562 -57.632812 21.53125 -57.28125 C 21.96875 -56.9375 22.460938 -56.210938 23.015625 -55.109375 L 34.109375 -33.75 L 46.734375 -54.75 C 47.441406 -55.851562 48.050781 -56.640625 48.5625 -57.109375 C 49.070312 -57.578125 49.640625 -57.8125 50.265625 -57.8125 C 50.898438 -57.8125 51.507812 -57.578125 52.09375 -57.109375 C 52.6875 -56.640625 53.296875 -55.851562 53.921875 -54.75 L 66.546875 -33.75 L 77.53125 -55.109375 C 78.15625 -56.210938 78.644531 -56.9375 79 -57.28125 C 79.351562 -57.632812 80.003906 -57.8125 80.953125 -57.8125 L 97.46875 -57.8125 C 98.019531 -57.8125 98.453125 -57.691406 98.765625 -57.453125 C 99.078125 -57.222656 99.234375 -56.910156 99.234375 -56.515625 C 99.234375 -56.285156 99.175781 -55.992188 99.0625 -55.640625 C 98.945312 -55.285156 98.847656 -55.066406 98.765625 -54.984375 L 72.328125 -2.234375 C 71.617188 -0.828125 70.96875 0.1875 70.375 0.8125 C 69.789062 1.445312 69.144531 1.765625 68.4375 1.765625 C 67.726562 1.765625 67.054688 1.445312 66.421875 0.8125 C 65.796875 0.1875 65.050781 -0.828125 64.1875 -2.234375 L 50.15625 -25.25 L 35.875 -2.234375 C 35.007812 -0.828125 34.238281 0.1875 33.5625 0.8125 C 32.894531 1.445312 32.25 1.765625 31.625 1.765625 C 30.914062 1.765625 30.265625 1.445312 29.671875 0.8125 C 29.085938 0.1875 28.441406 -0.828125 27.734375 -2.234375 Z M 1.421875 -54.984375 "/></g></g></g></g></g></g></g></g></g></mask><clipPath id="9cdb3979d3"><path d="M 0.355469 0 L 553 0 L 553 198 L 0.355469 198 Z M 0.355469 0 " clip-rule="nonzero"/></clipPath><clipPath id="1f3d9d3c92"><rect x="0" width="553" y="0" height="198"/></clipPath><clipPath id="20912508a7"><rect x="0" width="553" y="0" height="198"/></clipPath><clipPath id="80fa828fb6"><rect x="0" width="553" y="0" height="198"/></clipPath><clipPath id="d73c8231ba"><path d="M 78.460938 76.339844 L 149.867188 76.339844 L 149.867188 147.75 L 78.460938 147.75 Z M 78.460938 76.339844 " clip-rule="nonzero"/></clipPath><clipPath id="1c3e95ba7d"><path d="M 114.164062 76.339844 C 94.445312 76.339844 78.460938 92.324219 78.460938 112.042969 C 78.460938 131.761719 94.445312 147.75 114.164062 147.75 C 133.882812 147.75 149.867188 131.761719 149.867188 112.042969 C 149.867188 92.324219 133.882812 76.339844 114.164062 76.339844 Z M 114.164062 76.339844 " clip-rule="nonzero"/></clipPath><clipPath id="7a7a506919"><path d="M 0.460938 0.339844 L 71.867188 0.339844 L 71.867188 71.75 L 0.460938 71.75 Z M 0.460938 0.339844 " clip-rule="nonzero"/></clipPath><clipPath id="12eff9c08e"><path d="M 36.164062 0.339844 C 16.445312 0.339844 0.460938 16.324219 0.460938 36.042969 C 0.460938 55.761719 16.445312 71.75 36.164062 71.75 C 55.882812 71.75 71.867188 55.761719 71.867188 36.042969 C 71.867188 16.324219 55.882812 0.339844 36.164062 0.339844 Z M 36.164062 0.339844 " clip-rule="nonzero"/></clipPath><clipPath id="54d4054110"><rect x="0" width="72" y="0" height="72"/></clipPath><clipPath id="f7d2ce73fb"><path d="M 154.402344 76.339844 L 225.808594 76.339844 L 225.808594 147.75 L 154.402344 147.75 Z M 154.402344 76.339844 " clip-rule="nonzero"/></clipPath><clipPath id="00896dffdb"><path d="M 190.105469 76.339844 C 170.386719 76.339844 154.402344 92.324219 154.402344 112.042969 C 154.402344 131.761719 170.386719 147.75 190.105469 147.75 C 209.824219 147.75 225.808594 131.761719 225.808594 112.042969 C 225.808594 92.324219 209.824219 76.339844 190.105469 76.339844 Z M 190.105469 76.339844 " clip-rule="nonzero"/></clipPath><clipPath id="b1070fccc6"><path d="M 0.402344 0.339844 L 71.808594 0.339844 L 71.808594 71.75 L 0.402344 71.75 Z M 0.402344 0.339844 " clip-rule="nonzero"/></clipPath><clipPath id="8be83e5fdd"><path d="M 36.105469 0.339844 C 16.386719 0.339844 0.402344 16.324219 0.402344 36.042969 C 0.402344 55.761719 16.386719 71.75 36.105469 71.75 C 55.824219 71.75 71.808594 55.761719 71.808594 36.042969 C 71.808594 16.324219 55.824219 0.339844 36.105469 0.339844 Z M 36.105469 0.339844 " clip-rule="nonzero"/></clipPath><clipPath id="9e4213054b"><rect x="0" width="72" y="0" height="72"/></clipPath><clipPath id="a5a1e1fbdc"><path d="M 141 131 L 154.242188 131 L 154.242188 144 L 141 144 Z M 141 131 " clip-rule="nonzero"/></clipPath><clipPath id="01efef627c"><path d="M 83 79.066406 L 150 79.066406 L 150 145.066406 L 83 145.066406 Z M 83 79.066406 " clip-rule="nonzero"/></clipPath><clipPath id="6535805757"><path d="M 212 131 L 225.652344 131 L 225.652344 144 L 212 144 Z M 212 131 " clip-rule="nonzero"/></clipPath><clipPath id="2993dd0376"><path d="M 154.402344 79.066406 L 221 79.066406 L 221 145.066406 L 154.402344 145.066406 Z M 154.402344 79.066406 " clip-rule="nonzero"/></clipPath></defs><g clip-path="url(#8ae544d79d)"><g transform="matrix(1, 0, 0, 1, 352, 22)"><g clip-path="url(#2dd51f9eba)"><path fill="#ffffff" d="M 230.75 21.832031 L 174.199219 21.832031 L 174.199219 24.09375 L 230.75 24.09375 Z M 230.75 21.832031 " fill-opacity="1" fill-rule="nonzero"/><path fill="#ffffff" d="M 230.75 25.230469 L 174.199219 25.230469 L 174.199219 26.359375 L 230.75 26.359375 Z M 230.75 25.230469 " fill-opacity="1" fill-rule="nonzero"/><path fill="#ffffff" d="M 230.75 28.617188 L 174.199219 28.617188 L 174.199219 29.746094 L 230.75 29.746094 Z M 230.75 28.617188 " fill-opacity="1" fill-rule="nonzero"/><path fill="#ffffff" d="M 230.75 34.273438 L 174.199219 34.273438 L 174.199219 35.402344 L 230.75 35.402344 Z M 230.75 34.273438 " fill-opacity="1" fill-rule="nonzero"/><path fill="#ffffff" d="M 230.75 37.671875 L 174.199219 37.671875 L 174.199219 41.066406 L 230.75 41.066406 Z M 230.75 37.671875 " fill-opacity="1" fill-rule="nonzero"/><path fill="#ffffff" d="M 230.75 42.1875 L 174.199219 42.1875 L 174.199219 44.445312 L 230.75 44.445312 Z M 230.75 42.1875 " fill-opacity="1" fill-rule="nonzero"/><path fill="#ffffff" d="M 230.75 46.710938 L 174.199219 46.710938 L 174.199219 48.96875 L 230.75 48.96875 Z M 230.75 46.710938 " fill-opacity="1" fill-rule="nonzero"/><path fill="#ffffff" d="M 230.75 50.109375 L 174.199219 50.109375 L 174.199219 52.367188 L 230.75 52.367188 Z M 230.75 50.109375 " fill-opacity="1" fill-rule="nonzero"/><path fill="#ffffff" d="M 230.75 54.625 L 174.199219 54.625 L 174.199219 56.882812 L 230.75 56.882812 Z M 230.75 54.625 " fill-opacity="1" fill-rule="nonzero"/><path fill="#ffffff" d="M 230.75 59.152344 L 174.199219 59.152344 L 174.199219 61.410156 L 230.75 61.410156 Z M 230.75 59.152344 " fill-opacity="1" fill-rule="nonzero"/><path fill="#ffffff" d="M 230.75 63.675781 L 174.199219 63.675781 L 174.199219 64.808594 L 230.75 64.808594 Z M 230.75 63.675781 " fill-opacity="1" fill-rule="nonzero"/><path fill="#ffffff" d="M 230.75 65.9375 L 174.199219 65.9375 L 174.199219 69.332031 L 230.75 69.332031 Z M 230.75 65.9375 " fill-opacity="1" fill-rule="nonzero"/><path fill="#ffffff" d="M 230.75 71.589844 L 174.199219 71.589844 L 174.199219 72.71875 L 230.75 72.71875 Z M 230.75 71.589844 " fill-opacity="1" fill-rule="nonzero"/><path fill="#ffffff" d="M 230.75 73.859375 L 174.199219 73.859375 L 174.199219 77.253906 L 230.75 77.253906 Z M 230.75 73.859375 " fill-opacity="1" fill-rule="nonzero"/><path fill="#ffffff" d="M 230.75 78.375 L 174.199219 78.375 L 174.199219 82.902344 L 230.75 82.902344 Z M 230.75 78.375 " fill-opacity="1" fill-rule="nonzero"/><path fill="#ffffff" d="M 230.75 84.03125 L 174.199219 84.03125 L 174.199219 87.425781 L 230.75 87.425781 Z M 230.75 84.03125 " fill-opacity="1" fill-rule="nonzero"/><path fill="#ffffff" d="M 230.75 88.554688 L 174.199219 88.554688 L 174.199219 89.683594 L 230.75 89.683594 Z M 230.75 88.554688 " fill-opacity="1" fill-rule="nonzero"/><path fill="#ffffff" d="M 230.75 93.082031 L 174.199219 93.082031 L 174.199219 95.339844 L 230.75 95.339844 Z M 230.75 93.082031 " fill-opacity="1" fill-rule="nonzero"/><path fill="#ffffff" d="M 230.75 96.46875 L 174.199219 96.46875 L 174.199219 97.597656 L 230.75 97.597656 Z M 230.75 96.46875 " fill-opacity="1" fill-rule="nonzero"/><path fill="#ffffff" d="M 230.75 98.738281 L 174.199219 98.738281 L 174.199219 102.132812 L 230.75 102.132812 Z M 230.75 98.738281 " fill-opacity="1" fill-rule="nonzero"/><path fill="#ffffff" d="M 230.75 103.261719 L 174.199219 103.261719 L 174.199219 105.519531 L 230.75 105.519531 Z M 230.75 103.261719 " fill-opacity="1" fill-rule="nonzero"/><path fill="#ffffff" d="M 230.75 108.917969 L 174.199219 108.917969 L 174.199219 110.046875 L 230.75 110.046875 Z M 230.75 108.917969 " fill-opacity="1" fill-rule="nonzero"/><path fill="#ffffff" d="M 230.75 111.175781 L 174.199219 111.175781 L 174.199219 115.703125 L 230.75 115.703125 Z M 230.75 111.175781 " fill-opacity="1" fill-rule="nonzero"/><path fill="#ffffff" d="M 230.75 116.832031 L 174.199219 116.832031 L 174.199219 120.230469 L 230.75 120.230469 Z M 230.75 116.832031 " fill-opacity="1" fill-rule="nonzero"/><path fill="#ffffff" d="M 230.75 121.359375 L 174.199219 121.359375 L 174.199219 123.617188 L 230.75 123.617188 Z M 230.75 121.359375 " fill-opacity="1" fill-rule="nonzero"/><path fill="#ffffff" d="M 230.75 124.746094 L 174.199219 124.746094 L 174.199219 127.003906 L 230.75 127.003906 Z M 230.75 124.746094 " fill-opacity="1" fill-rule="nonzero"/><path fill="#ffffff" d="M 230.75 129.269531 L 174.199219 129.269531 L 174.199219 131.527344 L 230.75 131.527344 Z M 230.75 129.269531 " fill-opacity="1" fill-rule="nonzero"/><path fill="#ffffff" d="M 230.75 133.796875 L 174.199219 133.796875 L 174.199219 136.054688 L 230.75 136.054688 Z M 230.75 133.796875 " fill-opacity="1" fill-rule="nonzero"/><g clip-path="url(#eba882aa37)"><path fill="#ffffff" d="M -79.507812 153.277344 L 259.738281 153.277344 L 259.738281 134.789062 L 258.203125 134.789062 C 253.101562 134.789062 248.953125 130.636719 248.953125 125.539062 C 248.953125 120.4375 253.101562 116.285156 258.203125 116.285156 L 259.738281 116.285156 L 259.738281 102.441406 L 258.203125 102.441406 C 253.101562 102.441406 248.953125 98.292969 248.953125 93.191406 C 248.953125 88.089844 253.101562 83.941406 258.203125 83.941406 L 259.738281 83.941406 L 259.738281 70.066406 L 258.203125 70.066406 C 253.101562 70.066406 248.953125 65.914062 248.953125 60.816406 C 248.953125 55.714844 253.101562 51.566406 258.203125 51.566406 L 259.738281 51.566406 L 259.738281 37.71875 L 258.203125 37.71875 C 253.101562 37.71875 248.953125 33.570312 248.953125 28.46875 C 248.953125 23.367188 253.101562 19.21875 258.203125 19.21875 L 259.738281 19.21875 L 259.738281 0.730469 L -79.507812 0.730469 L -79.507812 19.21875 L -77.976562 19.21875 C -72.875 19.21875 -68.722656 23.367188 -68.722656 28.46875 C -68.722656 33.570312 -72.875 37.71875 -77.976562 37.71875 L -79.507812 37.71875 L -79.507812 51.566406 L -77.976562 51.566406 C -72.875 51.566406 -68.722656 55.714844 -68.722656 60.816406 C -68.722656 65.914062 -72.875 70.066406 -77.976562 70.066406 L -79.507812 70.066406 L -79.507812 83.910156 L -77.976562 83.910156 C -72.875 83.910156 -68.722656 88.0625 -68.722656 93.160156 C -68.722656 98.261719 -72.875 102.410156 -77.976562 102.410156 L -79.507812 102.410156 L -79.507812 116.257812 L -77.976562 116.257812 C -72.875 116.257812 -68.722656 120.40625 -68.722656 125.507812 C -68.722656 130.609375 -72.875 134.757812 -77.976562 134.757812 L -79.507812 134.757812 Z M 256.667969 150.21875 L -76.449219 150.21875 L -76.449219 137.757812 C -70.378906 137.007812 -65.664062 131.804688 -65.664062 125.539062 C -65.664062 119.269531 -70.378906 114.070312 -76.449219 113.316406 L -76.449219 105.402344 C -70.378906 104.648438 -65.664062 99.449219 -65.664062 93.179688 C -65.664062 86.914062 -70.378906 81.710938 -76.449219 80.960938 L -76.449219 73.035156 C -70.378906 72.285156 -65.664062 67.085938 -65.664062 60.816406 C -65.664062 54.546875 -70.378906 49.347656 -76.449219 48.59375 L -76.449219 40.679688 C -70.378906 39.929688 -65.664062 34.730469 -65.664062 28.460938 C -65.664062 22.191406 -70.378906 16.992188 -76.449219 16.238281 L -76.449219 3.777344 L 256.667969 3.777344 L 256.667969 16.238281 C 250.597656 16.992188 245.882812 22.191406 245.882812 28.460938 C 245.882812 34.730469 250.597656 39.929688 256.667969 40.679688 L 256.667969 48.59375 C 250.597656 49.347656 245.882812 54.546875 245.882812 60.816406 C 245.882812 67.085938 250.597656 72.285156 256.667969 73.035156 L 256.667969 80.949219 C 250.597656 81.703125 245.882812 86.902344 245.882812 93.171875 C 245.882812 99.441406 250.597656 104.640625 256.667969 105.394531 L 256.667969 113.304688 C 250.597656 114.058594 245.882812 119.257812 245.882812 125.527344 C 245.882812 131.796875 250.597656 136.996094 256.667969 137.75 Z M 256.667969 150.21875 " fill-opacity="1" fill-rule="nonzero"/></g><path fill="#ffffff" d="M 155.378906 2.242188 L 152.320312 2.242188 L 152.320312 151.277344 L 155.378906 151.277344 Z M 155.378906 2.242188 " fill-opacity="1" fill-rule="nonzero"/></g></g></g><g transform="matrix(1, 0, 0, 1, 0, 12)"><g clip-path="url(#e11ab1d25b)"><g fill="#ffffff" fill-opacity="1"><g transform="translate(0.00000618182, 128.913941)"><g><path d="M 8.84375 -79.53125 C 8.84375 -80.632812 9.097656 -81.421875 9.609375 -81.890625 C 10.128906 -82.359375 10.898438 -82.59375 11.921875 -82.59375 L 42.828125 -82.59375 C 53.140625 -82.59375 60.945312 -80.785156 66.25 -77.171875 C 71.5625 -73.554688 74.21875 -67.695312 74.21875 -59.59375 C 74.21875 -55.582031 73.289062 -52.160156 71.4375 -49.328125 C 69.59375 -46.492188 67.097656 -44.328125 63.953125 -42.828125 C 67.890625 -41.648438 71.015625 -39.488281 73.328125 -36.34375 C 75.648438 -33.195312 76.8125 -29.5 76.8125 -25.25 C 76.8125 -16.519531 73.878906 -10.128906 68.015625 -6.078125 C 62.160156 -2.023438 53.882812 0 43.1875 0 L 11.921875 0 C 10.898438 0 10.128906 -0.253906 9.609375 -0.765625 C 9.097656 -1.273438 8.84375 -2.039062 8.84375 -3.0625 Z M 41.65625 -50.625 C 45.75 -50.625 48.695312 -51.171875 50.5 -52.265625 C 52.3125 -53.367188 53.21875 -55.179688 53.21875 -57.703125 C 53.21875 -60.222656 52.3125 -62.007812 50.5 -63.0625 C 48.695312 -64.125 45.75 -64.65625 41.65625 -64.65625 L 31.15625 -64.65625 C 30.445312 -64.65625 29.972656 -64.519531 29.734375 -64.25 C 29.492188 -63.976562 29.375 -63.523438 29.375 -62.890625 L 29.375 -52.390625 C 29.375 -51.765625 29.492188 -51.3125 29.734375 -51.03125 C 29.972656 -50.757812 30.445312 -50.625 31.15625 -50.625 Z M 43.1875 -17.9375 C 47.507812 -17.9375 50.65625 -18.523438 52.625 -19.703125 C 54.59375 -20.878906 55.578125 -22.769531 55.578125 -25.375 C 55.578125 -27.96875 54.550781 -29.832031 52.5 -30.96875 C 50.457031 -32.113281 47.351562 -32.6875 43.1875 -32.6875 L 31.15625 -32.6875 C 30.445312 -32.6875 29.972656 -32.566406 29.734375 -32.328125 C 29.492188 -32.097656 29.375 -31.628906 29.375 -30.921875 L 29.375 -19.703125 C 29.375 -19.078125 29.492188 -18.625 29.734375 -18.34375 C 29.972656 -18.070312 30.445312 -17.9375 31.15625 -17.9375 Z M 43.1875 -17.9375 "/></g></g></g><g fill="#ffffff" fill-opacity="1"><g transform="translate(80.355599, 128.913941)"><g><path d="M 4.125 -28.671875 C 4.125 -34.578125 5.476562 -39.847656 8.1875 -44.484375 C 10.90625 -49.128906 14.679688 -52.75 19.515625 -55.34375 C 24.359375 -57.9375 29.890625 -59.234375 36.109375 -59.234375 C 42.328125 -59.234375 47.875 -57.9375 52.75 -55.34375 C 57.625 -52.75 61.414062 -49.148438 64.125 -44.546875 C 66.84375 -39.941406 68.203125 -34.726562 68.203125 -28.90625 C 68.203125 -23.082031 66.84375 -17.867188 64.125 -13.265625 C 61.414062 -8.671875 57.601562 -5.070312 52.6875 -2.46875 C 47.769531 0.125 42.203125 1.421875 35.984375 1.421875 C 29.773438 1.421875 24.25 0.144531 19.40625 -2.40625 C 14.570312 -4.96875 10.816406 -8.550781 8.140625 -13.15625 C 5.460938 -17.757812 4.125 -22.929688 4.125 -28.671875 Z M 35.984375 -16.40625 C 38.109375 -16.40625 40.078125 -16.9375 41.890625 -18 C 43.703125 -19.0625 45.15625 -20.535156 46.25 -22.421875 C 47.351562 -24.304688 47.90625 -26.46875 47.90625 -28.90625 C 47.90625 -31.34375 47.351562 -33.503906 46.25 -35.390625 C 45.15625 -37.285156 43.703125 -38.765625 41.890625 -39.828125 C 40.078125 -40.890625 38.109375 -41.421875 35.984375 -41.421875 C 33.859375 -41.421875 31.910156 -40.890625 30.140625 -39.828125 C 28.378906 -38.765625 26.984375 -37.285156 25.953125 -35.390625 C 24.929688 -33.503906 24.421875 -31.34375 24.421875 -28.90625 C 24.421875 -26.46875 24.929688 -24.304688 25.953125 -22.421875 C 26.984375 -20.535156 28.378906 -19.0625 30.140625 -18 C 31.910156 -16.9375 33.859375 -16.40625 35.984375 -16.40625 Z M 35.984375 -16.40625 "/></g></g></g><g fill="#ffffff" fill-opacity="1"><g transform="translate(152.68743, 128.913941)"><g><path d="M 4.125 -28.671875 C 4.125 -34.578125 5.476562 -39.847656 8.1875 -44.484375 C 10.90625 -49.128906 14.679688 -52.75 19.515625 -55.34375 C 24.359375 -57.9375 29.890625 -59.234375 36.109375 -59.234375 C 42.328125 -59.234375 47.875 -57.9375 52.75 -55.34375 C 57.625 -52.75 61.414062 -49.148438 64.125 -44.546875 C 66.84375 -39.941406 68.203125 -34.726562 68.203125 -28.90625 C 68.203125 -23.082031 66.84375 -17.867188 64.125 -13.265625 C 61.414062 -8.671875 57.601562 -5.070312 52.6875 -2.46875 C 47.769531 0.125 42.203125 1.421875 35.984375 1.421875 C 29.773438 1.421875 24.25 0.144531 19.40625 -2.40625 C 14.570312 -4.96875 10.816406 -8.550781 8.140625 -13.15625 C 5.460938 -17.757812 4.125 -22.929688 4.125 -28.671875 Z M 35.984375 -16.40625 C 38.109375 -16.40625 40.078125 -16.9375 41.890625 -18 C 43.703125 -19.0625 45.15625 -20.535156 46.25 -22.421875 C 47.351562 -24.304688 47.90625 -26.46875 47.90625 -28.90625 C 47.90625 -31.34375 47.351562 -33.503906 46.25 -35.390625 C 45.15625 -37.285156 43.703125 -38.765625 41.890625 -39.828125 C 40.078125 -40.890625 38.109375 -41.421875 35.984375 -41.421875 C 33.859375 -41.421875 31.910156 -40.890625 30.140625 -39.828125 C 28.378906 -38.765625 26.984375 -37.285156 25.953125 -35.390625 C 24.929688 -33.503906 24.421875 -31.34375 24.421875 -28.90625 C 24.421875 -26.46875 24.929688 -24.304688 25.953125 -22.421875 C 26.984375 -20.535156 28.378906 -19.0625 30.140625 -18 C 31.910156 -16.9375 33.859375 -16.40625 35.984375 -16.40625 Z M 35.984375 -16.40625 "/></g></g></g><g fill="#ffffff" fill-opacity="1"><g transform="translate(225.019261, 128.913941)"><g><path d="M 7.671875 -85.4375 C 7.671875 -86.53125 7.925781 -87.3125 8.4375 -87.78125 C 8.945312 -88.257812 9.710938 -88.5 10.734375 -88.5 L 24.3125 -88.5 C 25.40625 -88.5 26.207031 -88.257812 26.71875 -87.78125 C 27.238281 -87.3125 27.5 -86.53125 27.5 -85.4375 L 27.5 -3.0625 C 27.5 -1.96875 27.238281 -1.179688 26.71875 -0.703125 C 26.207031 -0.234375 25.40625 0 24.3125 0 L 10.734375 0 C 9.710938 0 8.945312 -0.253906 8.4375 -0.765625 C 7.925781 -1.273438 7.671875 -2.039062 7.671875 -3.0625 Z M 29.734375 -27.265625 C 29.265625 -28.128906 29.03125 -28.832031 29.03125 -29.375 C 29.03125 -30.007812 29.265625 -30.679688 29.734375 -31.390625 L 44.609375 -55.578125 C 45.160156 -56.441406 45.726562 -57.03125 46.3125 -57.34375 C 46.90625 -57.65625 47.710938 -57.8125 48.734375 -57.8125 L 66.4375 -57.8125 C 67.539062 -57.8125 68.09375 -57.34375 68.09375 -56.40625 C 68.09375 -55.851562 67.929688 -55.378906 67.609375 -54.984375 L 51.328125 -30.09375 L 69.734375 -2.71875 C 70.046875 -2.082031 70.203125 -1.648438 70.203125 -1.421875 C 70.203125 -1.023438 70.046875 -0.6875 69.734375 -0.40625 C 69.421875 -0.132812 68.988281 0 68.4375 0 L 50.15625 0 C 49.050781 0 48.222656 -0.132812 47.671875 -0.40625 C 47.117188 -0.6875 46.566406 -1.257812 46.015625 -2.125 Z M 29.734375 -27.265625 "/></g></g></g></g></g><g transform="matrix(1, 0, 0, 1, 59, 0)"><g clip-path="url(#80fa828fb6)"><g clip-path="url(#085281e4aa)"><g><g clip-path="url(#20912508a7)"><g clip-path="url(#c2f8c8b324)"><g mask="url(#2fec4abbbf)"><g><g clip-path="url(#1f3d9d3c92)"><g clip-path="url(#9cdb3979d3)"><path fill="url(#ace15939c6)" d="M 0.355469 0 L 0.355469 198 L 553 198 L 553 0 Z M 0.355469 0 " fill-rule="nonzero"/></g></g></g></g></g></g></g></g></g></g><g clip-path="url(#d73c8231ba)"><g clip-path="url(#1c3e95ba7d)"><g transform="matrix(1, 0, 0, 1, 78, 76)"><g clip-path="url(#54d4054110)"><g clip-path="url(#7a7a506919)"><g clip-path="url(#12eff9c08e)"><path fill="#000000" d="M 0.460938 0.339844 L 71.867188 0.339844 L 71.867188 71.75 L 0.460938 71.75 Z M 0.460938 0.339844 " fill-opacity="1" fill-rule="nonzero"/></g></g></g></g></g></g><g clip-path="url(#f7d2ce73fb)"><g clip-path="url(#00896dffdb)"><g transform="matrix(1, 0, 0, 1, 154, 76)"><g clip-path="url(#9e4213054b)"><g clip-path="url(#b1070fccc6)"><g clip-path="url(#8be83e5fdd)"><path fill="#000000" d="M 0.402344 0.339844 L 71.808594 0.339844 L 71.808594 71.75 L 0.402344 71.75 Z M 0.402344 0.339844 " fill-opacity="1" fill-rule="nonzero"/></g></g></g></g></g></g><g clip-path="url(#a5a1e1fbdc)"><path fill="#000000" d="M 142.960938 131.085938 C 142.960938 131.085938 145.207031 136.398438 149.023438 136.238281 C 152.835938 136.066406 154.320312 134.699219 154.320312 134.699219 L 153.152344 143.539062 C 153.152344 143.539062 141.796875 143.855469 141.019531 133.578125 C 140.875 131.617188 142.960938 131.085938 142.960938 131.085938 Z M 142.960938 131.085938 " fill-opacity="1" fill-rule="nonzero"/></g><path fill="#000000" d="M 138.703125 112.042969 C 138.703125 112.785156 138.664062 113.527344 138.59375 114.265625 C 138.519531 115.003906 138.410156 115.734375 138.265625 116.464844 C 138.121094 117.191406 137.941406 117.910156 137.726562 118.621094 C 137.511719 119.328125 137.261719 120.027344 136.976562 120.714844 C 136.691406 121.398438 136.375 122.070312 136.027344 122.722656 C 135.675781 123.378906 135.296875 124.011719 134.882812 124.628906 C 134.472656 125.246094 134.03125 125.84375 133.558594 126.417969 C 133.089844 126.988281 132.589844 127.539062 132.066406 128.0625 C 131.542969 128.589844 130.992188 129.085938 130.417969 129.554688 C 129.84375 130.027344 129.25 130.46875 128.632812 130.882812 C 128.015625 131.292969 127.378906 131.675781 126.726562 132.023438 C 126.070312 132.375 125.402344 132.691406 124.714844 132.976562 C 124.03125 133.257812 123.332031 133.507812 122.621094 133.722656 C 121.914062 133.9375 121.191406 134.121094 120.464844 134.265625 C 119.738281 134.410156 119.003906 134.515625 118.265625 134.589844 C 117.527344 134.664062 116.789062 134.699219 116.046875 134.699219 C 115.304688 134.699219 114.5625 134.664062 113.824219 134.589844 C 113.085938 134.515625 112.351562 134.410156 111.625 134.265625 C 110.898438 134.121094 110.179688 133.9375 109.46875 133.722656 C 108.757812 133.507812 108.0625 133.257812 107.375 132.976562 C 106.691406 132.691406 106.019531 132.375 105.367188 132.023438 C 104.710938 131.675781 104.074219 131.292969 103.457031 130.882812 C 102.839844 130.46875 102.246094 130.027344 101.671875 129.554688 C 101.097656 129.085938 100.550781 128.589844 100.023438 128.0625 C 99.5 127.539062 99.003906 126.988281 98.53125 126.417969 C 98.0625 125.84375 97.621094 125.246094 97.207031 124.628906 C 96.796875 124.011719 96.414062 123.378906 96.066406 122.722656 C 95.714844 122.070312 95.398438 121.398438 95.113281 120.714844 C 94.832031 120.027344 94.582031 119.328125 94.363281 118.621094 C 94.148438 117.910156 93.96875 117.191406 93.824219 116.464844 C 93.679688 115.734375 93.570312 115.003906 93.5 114.265625 C 93.425781 113.527344 93.390625 112.785156 93.390625 112.042969 C 93.390625 111.300781 93.425781 110.5625 93.5 109.824219 C 93.570312 109.085938 93.679688 108.351562 93.824219 107.625 C 93.96875 106.894531 94.148438 106.175781 94.363281 105.464844 C 94.582031 104.757812 94.832031 104.058594 95.113281 103.375 C 95.398438 102.6875 95.714844 102.019531 96.066406 101.363281 C 96.414062 100.707031 96.796875 100.074219 97.207031 99.457031 C 97.621094 98.839844 98.0625 98.242188 98.53125 97.671875 C 99.003906 97.097656 99.5 96.546875 100.023438 96.023438 C 100.550781 95.5 101.097656 95 101.671875 94.53125 C 102.246094 94.058594 102.839844 93.617188 103.457031 93.207031 C 104.074219 92.792969 104.710938 92.414062 105.367188 92.0625 C 106.019531 91.710938 106.691406 91.394531 107.375 91.113281 C 108.0625 90.828125 108.757812 90.578125 109.46875 90.363281 C 110.179688 90.148438 110.898438 89.96875 111.625 89.824219 C 112.351562 89.675781 113.085938 89.570312 113.824219 89.496094 C 114.5625 89.421875 115.304688 89.386719 116.046875 89.386719 C 116.789062 89.386719 117.527344 89.421875 118.265625 89.496094 C 119.003906 89.570312 119.738281 89.675781 120.464844 89.824219 C 121.191406 89.96875 121.914062 90.148438 122.621094 90.363281 C 123.332031 90.578125 124.03125 90.828125 124.714844 91.113281 C 125.402344 91.394531 126.070312 91.710938 126.726562 92.0625 C 127.378906 92.414062 128.015625 92.792969 128.632812 93.207031 C 129.25 93.617188 129.84375 94.058594 130.417969 94.53125 C 130.992188 95 131.542969 95.5 132.066406 96.023438 C 132.589844 96.546875 133.089844 97.097656 133.558594 97.671875 C 134.03125 98.242188 134.472656 98.839844 134.882812 99.457031 C 135.296875 100.074219 135.675781 100.707031 136.027344 101.363281 C 136.375 102.019531 136.691406 102.6875 136.976562 103.375 C 137.261719 104.058594 137.511719 104.757812 137.726562 105.464844 C 137.941406 106.175781 138.121094 106.894531 138.265625 107.625 C 138.410156 108.351562 138.519531 109.085938 138.59375 109.824219 C 138.664062 110.5625 138.703125 111.300781 138.703125 112.042969 Z M 138.703125 112.042969 " fill-opacity="1" fill-rule="nonzero"/><g clip-path="url(#01efef627c)"><path fill="#ffffff" d="M 116.046875 79.066406 C 97.835938 79.066406 83.070312 93.835938 83.070312 112.042969 C 83.070312 130.25 97.835938 145.019531 116.046875 145.019531 C 134.253906 145.019531 149.023438 130.25 149.023438 112.042969 C 149.023438 93.835938 134.253906 79.066406 116.046875 79.066406 Z M 116.046875 84.925781 C 121.039062 84.925781 125.070312 88.96875 125.070312 93.949219 C 125.070312 98.929688 121.027344 102.976562 116.046875 102.976562 C 111.066406 102.976562 107.019531 98.929688 107.019531 93.949219 C 107.019531 88.96875 111.050781 84.925781 116.046875 84.925781 Z M 121.933594 110.992188 C 121.933594 111.613281 121.441406 112.101562 120.824219 112.101562 C 120.207031 112.101562 119.714844 111.613281 119.714844 110.992188 C 119.714844 110.375 120.207031 109.882812 120.824219 109.882812 C 121.441406 109.882812 121.933594 110.375 121.933594 110.992188 Z M 117.152344 106.199219 C 117.152344 106.816406 116.664062 107.308594 116.046875 107.308594 C 115.425781 107.308594 114.9375 106.816406 114.9375 106.199219 C 114.9375 105.582031 115.425781 105.089844 116.046875 105.089844 C 116.648438 105.089844 117.152344 105.59375 117.152344 106.199219 Z M 112.359375 110.992188 C 112.359375 111.613281 111.871094 112.101562 111.253906 112.101562 C 110.632812 112.101562 110.144531 111.613281 110.144531 110.992188 C 110.144531 110.375 110.632812 109.882812 111.253906 109.882812 C 111.871094 109.882812 112.359375 110.375 112.359375 110.992188 Z M 89.878906 106.960938 C 89.878906 101.980469 93.921875 97.9375 98.902344 97.9375 C 103.882812 97.9375 107.925781 101.980469 107.925781 106.960938 C 107.925781 111.941406 103.882812 115.988281 98.902344 115.988281 C 93.921875 115.988281 89.878906 111.957031 89.878906 106.960938 Z M 105.191406 135.578125 C 100.210938 135.578125 96.167969 131.53125 96.167969 126.550781 C 96.167969 121.570312 100.210938 117.527344 105.191406 117.527344 C 110.1875 117.527344 114.21875 121.570312 114.21875 126.550781 C 114.21875 131.53125 110.171875 135.578125 105.191406 135.578125 Z M 113.527344 110.992188 C 113.527344 109.597656 114.648438 108.472656 116.046875 108.472656 C 117.441406 108.472656 118.566406 109.597656 118.566406 110.992188 C 118.566406 112.390625 117.441406 113.511719 116.046875 113.511719 C 114.648438 113.511719 113.527344 112.375 113.527344 110.992188 Z M 116.046875 116.878906 C 115.425781 116.878906 114.9375 116.390625 114.9375 115.769531 C 114.9375 115.152344 115.425781 114.664062 116.046875 114.664062 C 116.664062 114.664062 117.152344 115.152344 117.152344 115.769531 C 117.152344 116.390625 116.648438 116.878906 116.046875 116.878906 Z M 126.726562 135.578125 C 121.746094 135.578125 117.699219 131.53125 117.699219 126.550781 C 117.699219 121.570312 121.746094 117.527344 126.726562 117.527344 C 131.71875 117.527344 135.75 121.570312 135.75 126.550781 C 135.765625 131.53125 131.71875 135.578125 126.726562 135.578125 Z M 133.175781 116 C 128.195312 116 124.148438 111.957031 124.148438 106.976562 C 124.148438 101.996094 128.195312 97.9375 133.175781 97.9375 C 138.167969 97.9375 142.199219 101.980469 142.199219 106.960938 C 142.199219 111.941406 138.167969 116 133.175781 116 Z M 133.175781 116 " fill-opacity="1" fill-rule="nonzero"/></g><path fill="#e6e6e6" d="M 116.261719 142.398438 C 99.519531 142.398438 85.890625 128.785156 85.890625 112.027344 C 85.890625 95.289062 99.507812 81.65625 116.261719 81.65625 C 133 81.65625 146.632812 95.273438 146.632812 112.027344 C 146.617188 128.785156 133 142.398438 116.261719 142.398438 Z M 116.261719 83.113281 C 100.3125 83.113281 87.328125 96.09375 87.328125 112.042969 C 87.328125 127.992188 100.3125 140.976562 116.261719 140.976562 C 132.210938 140.976562 145.191406 127.992188 145.191406 112.042969 C 145.179688 96.09375 132.210938 83.113281 116.261719 83.113281 Z M 116.261719 83.113281 " fill-opacity="1" fill-rule="nonzero"/><g clip-path="url(#6535805757)"><path fill="#000000" d="M 214.371094 131.085938 C 214.371094 131.085938 216.617188 136.398438 220.429688 136.238281 C 224.246094 136.066406 225.726562 134.699219 225.726562 134.699219 L 224.5625 143.539062 C 224.5625 143.539062 213.203125 143.855469 212.425781 133.578125 C 212.285156 131.617188 214.371094 131.085938 214.371094 131.085938 Z M 214.371094 131.085938 " fill-opacity="1" fill-rule="nonzero"/></g><path fill="#000000" d="M 210.109375 112.042969 C 210.109375 112.785156 210.074219 113.527344 210 114.265625 C 209.929688 115.003906 209.820312 115.734375 209.675781 116.464844 C 209.53125 117.191406 209.351562 117.910156 209.132812 118.621094 C 208.917969 119.328125 208.667969 120.027344 208.386719 120.714844 C 208.101562 121.398438 207.785156 122.070312 207.433594 122.722656 C 207.085938 123.378906 206.703125 124.011719 206.292969 124.628906 C 205.878906 125.246094 205.4375 125.84375 204.96875 126.417969 C 204.496094 126.988281 204 127.539062 203.472656 128.0625 C 202.949219 128.589844 202.398438 129.085938 201.828125 129.554688 C 201.253906 130.027344 200.65625 130.46875 200.039062 130.882812 C 199.425781 131.292969 198.789062 131.675781 198.132812 132.023438 C 197.480469 132.375 196.808594 132.691406 196.125 132.976562 C 195.4375 133.257812 194.742188 133.507812 194.03125 133.722656 C 193.320312 133.9375 192.601562 134.121094 191.875 134.265625 C 191.144531 134.410156 190.414062 134.515625 189.675781 134.589844 C 188.9375 134.664062 188.195312 134.699219 187.453125 134.699219 C 186.710938 134.699219 185.972656 134.664062 185.234375 134.589844 C 184.496094 134.515625 183.761719 134.410156 183.035156 134.265625 C 182.304688 134.121094 181.585938 133.9375 180.878906 133.722656 C 180.167969 133.507812 179.46875 133.257812 178.785156 132.976562 C 178.097656 132.691406 177.429688 132.375 176.773438 132.023438 C 176.121094 131.675781 175.484375 131.292969 174.867188 130.882812 C 174.25 130.46875 173.65625 130.027344 173.082031 129.554688 C 172.507812 129.085938 171.957031 128.589844 171.433594 128.0625 C 170.910156 127.539062 170.410156 126.988281 169.941406 126.417969 C 169.46875 125.84375 169.027344 125.246094 168.617188 124.628906 C 168.203125 124.011719 167.824219 123.378906 167.472656 122.722656 C 167.125 122.070312 166.804688 121.398438 166.523438 120.714844 C 166.238281 120.027344 165.988281 119.328125 165.773438 118.621094 C 165.558594 117.910156 165.378906 117.191406 165.234375 116.464844 C 165.089844 115.734375 164.980469 115.003906 164.90625 114.265625 C 164.835938 113.527344 164.796875 112.785156 164.796875 112.042969 C 164.796875 111.300781 164.835938 110.5625 164.90625 109.824219 C 164.980469 109.085938 165.089844 108.351562 165.234375 107.625 C 165.378906 106.894531 165.558594 106.175781 165.773438 105.464844 C 165.988281 104.757812 166.238281 104.058594 166.523438 103.375 C 166.804688 102.6875 167.125 102.019531 167.472656 101.363281 C 167.824219 100.707031 168.203125 100.074219 168.617188 99.457031 C 169.027344 98.839844 169.46875 98.242188 169.941406 97.671875 C 170.410156 97.097656 170.910156 96.546875 171.433594 96.023438 C 171.957031 95.5 172.507812 95 173.082031 94.53125 C 173.65625 94.058594 174.25 93.617188 174.867188 93.207031 C 175.484375 92.792969 176.121094 92.414062 176.773438 92.0625 C 177.429688 91.710938 178.097656 91.394531 178.785156 91.113281 C 179.46875 90.828125 180.167969 90.578125 180.878906 90.363281 C 181.585938 90.148438 182.304688 89.96875 183.035156 89.824219 C 183.761719 89.675781 184.496094 89.570312 185.234375 89.496094 C 185.972656 89.421875 186.710938 89.386719 187.453125 89.386719 C 188.195312 89.386719 188.9375 89.421875 189.675781 89.496094 C 190.414062 89.570312 191.144531 89.675781 191.875 89.824219 C 192.601562 89.96875 193.320312 90.148438 194.03125 90.363281 C 194.742188 90.578125 195.4375 90.828125 196.125 91.113281 C 196.808594 91.394531 197.480469 91.710938 198.132812 92.0625 C 198.789062 92.414062 199.425781 92.792969 200.039062 93.207031 C 200.65625 93.617188 201.253906 94.058594 201.828125 94.53125 C 202.398438 95 202.949219 95.5 203.472656 96.023438 C 204 96.546875 204.496094 97.097656 204.96875 97.671875 C 205.4375 98.242188 205.878906 98.839844 206.292969 99.457031 C 206.703125 100.074219 207.085938 100.707031 207.433594 101.363281 C 207.785156 102.019531 208.101562 102.6875 208.386719 103.375 C 208.667969 104.058594 208.917969 104.757812 209.132812 105.464844 C 209.351562 106.175781 209.53125 106.894531 209.675781 107.625 C 209.820312 108.351562 209.929688 109.085938 210 109.824219 C 210.074219 110.5625 210.109375 111.300781 210.109375 112.042969 Z M 210.109375 112.042969 " fill-opacity="1" fill-rule="nonzero"/><g clip-path="url(#2993dd0376)"><path fill="#ffffff" d="M 187.453125 79.066406 C 169.246094 79.066406 154.476562 93.835938 154.476562 112.042969 C 154.476562 130.25 169.246094 145.019531 187.453125 145.019531 C 205.664062 145.019531 220.429688 130.25 220.429688 112.042969 C 220.429688 93.835938 205.664062 79.066406 187.453125 79.066406 Z M 187.453125 84.925781 C 192.449219 84.925781 196.480469 88.96875 196.480469 93.949219 C 196.480469 98.929688 192.433594 102.976562 187.453125 102.976562 C 182.472656 102.976562 178.429688 98.929688 178.429688 93.949219 C 178.429688 88.96875 182.460938 84.925781 187.453125 84.925781 Z M 193.339844 110.992188 C 193.339844 111.613281 192.851562 112.101562 192.234375 112.101562 C 191.613281 112.101562 191.125 111.613281 191.125 110.992188 C 191.125 110.375 191.613281 109.882812 192.234375 109.882812 C 192.851562 109.882812 193.339844 110.375 193.339844 110.992188 Z M 188.5625 106.199219 C 188.5625 106.816406 188.074219 107.308594 187.453125 107.308594 C 186.835938 107.308594 186.34375 106.816406 186.34375 106.199219 C 186.34375 105.582031 186.835938 105.089844 187.453125 105.089844 C 188.058594 105.089844 188.5625 105.59375 188.5625 106.199219 Z M 183.769531 110.992188 C 183.769531 111.613281 183.28125 112.101562 182.660156 112.101562 C 182.042969 112.101562 181.550781 111.613281 181.550781 110.992188 C 181.550781 110.375 182.042969 109.882812 182.660156 109.882812 C 183.28125 109.882812 183.769531 110.375 183.769531 110.992188 Z M 161.285156 106.960938 C 161.285156 101.980469 165.332031 97.9375 170.3125 97.9375 C 175.289062 97.9375 179.335938 101.980469 179.335938 106.960938 C 179.335938 111.941406 175.289062 115.988281 170.3125 115.988281 C 165.332031 115.988281 161.285156 111.957031 161.285156 106.960938 Z M 176.601562 135.578125 C 171.621094 135.578125 167.574219 131.53125 167.574219 126.550781 C 167.574219 121.570312 171.621094 117.527344 176.601562 117.527344 C 181.59375 117.527344 185.625 121.570312 185.625 126.550781 C 185.625 131.53125 181.582031 135.578125 176.601562 135.578125 Z M 184.933594 110.992188 C 184.933594 109.597656 186.058594 108.472656 187.453125 108.472656 C 188.851562 108.472656 189.972656 109.597656 189.972656 110.992188 C 189.972656 112.390625 188.851562 113.511719 187.453125 113.511719 C 186.058594 113.511719 184.933594 112.375 184.933594 110.992188 Z M 187.453125 116.878906 C 186.835938 116.878906 186.34375 116.390625 186.34375 115.769531 C 186.34375 115.152344 186.835938 114.664062 187.453125 114.664062 C 188.074219 114.664062 188.5625 115.152344 188.5625 115.769531 C 188.5625 116.390625 188.058594 116.878906 187.453125 116.878906 Z M 198.132812 135.578125 C 193.152344 135.578125 189.109375 131.53125 189.109375 126.550781 C 189.109375 121.570312 193.152344 117.527344 198.132812 117.527344 C 203.128906 117.527344 207.160156 121.570312 207.160156 126.550781 C 207.171875 131.53125 203.128906 135.578125 198.132812 135.578125 Z M 204.582031 116 C 199.601562 116 195.558594 111.957031 195.558594 106.976562 C 195.558594 101.996094 199.601562 97.9375 204.582031 97.9375 C 209.578125 97.9375 213.609375 101.980469 213.609375 106.960938 C 213.609375 111.941406 209.578125 116 204.582031 116 Z M 204.582031 116 " fill-opacity="1" fill-rule="nonzero"/></g><path fill="#e6e6e6" d="M 187.667969 142.398438 C 170.929688 142.398438 157.296875 128.785156 157.296875 112.027344 C 157.296875 95.289062 170.914062 81.65625 187.667969 81.65625 C 204.410156 81.65625 218.039062 95.273438 218.039062 112.027344 C 218.027344 128.785156 204.410156 142.398438 187.667969 142.398438 Z M 187.667969 83.113281 C 171.722656 83.113281 158.738281 96.09375 158.738281 112.042969 C 158.738281 127.992188 171.722656 140.976562 187.667969 140.976562 C 203.617188 140.976562 216.601562 127.992188 216.601562 112.042969 C 216.585938 96.09375 203.617188 83.113281 187.667969 83.113281 Z M 187.667969 83.113281 " fill-opacity="1" fill-rule="nonzero"/></svg>