<svg xmlns="http://www.w3.org/2000/svg" xmlns:xlink="http://www.w3.org/1999/xlink" width="816" zoomAndPan="magnify" viewBox="0 0 612 197.999996" height="264" preserveAspectRatio="xMidYMid meet" version="1.0"><defs><filter x="0%" y="0%" width="100%" height="100%" id="d3644c6865"><feColorMatrix values="0 0 0 0 1 0 0 0 0 1 0 0 0 0 1 0 0 0 1 0" color-interpolation-filters="sRGB"/></filter><g/><mask id="f993d5f8ef"><g filter="url(#d3644c6865)"><rect x="-61.2" width="734.4" fill="#000000" y="-19.8" height="237.599995" fill-opacity="0.88"/></g></mask><clipPath id="d7245770bd"><path d="M 66.78125 1.417969 L 280.53125 1.417969 L 280.53125 126.667969 L 66.78125 126.667969 Z M 66.78125 1.417969 " clip-rule="nonzero"/></clipPath><clipPath id="11c6803161"><path d="M 0.78125 0.417969 L 214.296875 0.417969 L 214.296875 125.667969 L 0.78125 125.667969 Z M 0.78125 0.417969 " clip-rule="nonzero"/></clipPath><clipPath id="8972722dad"><rect x="0" width="215" y="0" height="126"/></clipPath><clipPath id="6984321463"><rect x="0" width="281" y="0" height="128"/></clipPath><clipPath id="7042644a1c"><rect x="0" width="245" y="0" height="134"/></clipPath><clipPath id="8e39768b0a"><path d="M 0.898438 0 L 534 0 L 534 198 L 0.898438 198 Z M 0.898438 0 " clip-rule="nonzero"/></clipPath><clipPath id="1d2b1ff9d2"><path d="M 0.898438 0 L 534 0 L 534 198 L 0.898438 198 Z M 0.898438 0 " clip-rule="nonzero"/></clipPath><clipPath id="a3ce95e49f"><path d="M 0.898438 0 L 534 0 L 534 198 L 0.898438 198 Z M 0.898438 0 " clip-rule="nonzero"/></clipPath><linearGradient x1="-89.865107" gradientTransform="matrix(1.009962, 0, 0, 1.009671, 194.8129, 27.414813)" y1="-129.287107" x2="272.107328" gradientUnits="userSpaceOnUse" y2="232.685327" id="ceead25f72"><stop stop-opacity="1" stop-color="rgb(100%, 21.569824%, 21.569824%)" offset="0"/><stop stop-opacity="1" stop-color="rgb(100%, 21.569824%, 21.569824%)" offset="0.25"/><stop stop-opacity="1" stop-color="rgb(100%, 21.569824%, 21.569824%)" offset="0.270882"/><stop stop-opacity="1" stop-color="rgb(100%, 21.569824%, 21.569824%)" offset="0.28125"/><stop stop-opacity="1" stop-color="rgb(100%, 21.569824%, 21.569824%)" offset="0.296875"/><stop stop-opacity="1" stop-color="rgb(100%, 21.588135%, 21.57135%)" offset="0.304687"/><stop stop-opacity="1" stop-color="rgb(100%, 21.868896%, 21.598816%)" offset="0.308594"/><stop stop-opacity="1" stop-color="rgb(100%, 22.129822%, 21.624756%)" offset="0.3125"/><stop stop-opacity="1" stop-color="rgb(100%, 22.389221%, 21.650696%)" offset="0.316406"/><stop stop-opacity="1" stop-color="rgb(100%, 22.650146%, 21.676636%)" offset="0.320312"/><stop stop-opacity="1" stop-color="rgb(100%, 22.909546%, 21.70105%)" offset="0.324219"/><stop stop-opacity="1" stop-color="rgb(100%, 23.170471%, 21.72699%)" offset="0.328125"/><stop stop-opacity="1" stop-color="rgb(100%, 23.431396%, 21.75293%)" offset="0.332031"/><stop stop-opacity="1" stop-color="rgb(100%, 23.692322%, 21.77887%)" offset="0.335938"/><stop stop-opacity="1" stop-color="rgb(100%, 23.951721%, 21.80481%)" offset="0.339844"/><stop stop-opacity="1" stop-color="rgb(100%, 24.212646%, 21.83075%)" offset="0.34375"/><stop stop-opacity="1" stop-color="rgb(100%, 24.473572%, 21.856689%)" offset="0.347656"/><stop stop-opacity="1" stop-color="rgb(100%, 24.734497%, 21.882629%)" offset="0.351562"/><stop stop-opacity="1" stop-color="rgb(100%, 24.993896%, 21.907043%)" offset="0.355469"/><stop stop-opacity="1" stop-color="rgb(100%, 25.254822%, 21.932983%)" offset="0.359375"/><stop stop-opacity="1" stop-color="rgb(100%, 25.514221%, 21.958923%)" offset="0.363281"/><stop stop-opacity="1" stop-color="rgb(100%, 25.775146%, 21.984863%)" offset="0.367188"/><stop stop-opacity="1" stop-color="rgb(100%, 26.036072%, 22.010803%)" offset="0.371094"/><stop stop-opacity="1" stop-color="rgb(100%, 26.296997%, 22.036743%)" offset="0.375"/><stop stop-opacity="1" stop-color="rgb(100%, 26.556396%, 22.062683%)" offset="0.378906"/><stop stop-opacity="1" stop-color="rgb(100%, 26.817322%, 22.088623%)" offset="0.382812"/><stop stop-opacity="1" stop-color="rgb(100%, 27.076721%, 22.113037%)" offset="0.386719"/><stop stop-opacity="1" stop-color="rgb(100%, 27.337646%, 22.138977%)" offset="0.390625"/><stop stop-opacity="1" stop-color="rgb(100%, 27.598572%, 22.164917%)" offset="0.394531"/><stop stop-opacity="1" stop-color="rgb(100%, 27.859497%, 22.190857%)" offset="0.398438"/><stop stop-opacity="1" stop-color="rgb(100%, 28.118896%, 22.216797%)" offset="0.402344"/><stop stop-opacity="1" stop-color="rgb(100%, 28.379822%, 22.242737%)" offset="0.40625"/><stop stop-opacity="1" stop-color="rgb(100%, 28.640747%, 22.268677%)" offset="0.410156"/><stop stop-opacity="1" stop-color="rgb(100%, 28.901672%, 22.294617%)" offset="0.414062"/><stop stop-opacity="1" stop-color="rgb(100%, 29.161072%, 22.319031%)" offset="0.417969"/><stop stop-opacity="1" stop-color="rgb(100%, 29.421997%, 22.344971%)" offset="0.421875"/><stop stop-opacity="1" stop-color="rgb(100%, 29.681396%, 22.370911%)" offset="0.425781"/><stop stop-opacity="1" stop-color="rgb(100%, 29.942322%, 22.396851%)" offset="0.429688"/><stop stop-opacity="1" stop-color="rgb(100%, 30.203247%, 22.422791%)" offset="0.433594"/><stop stop-opacity="1" stop-color="rgb(100%, 30.464172%, 22.44873%)" offset="0.4375"/><stop stop-opacity="1" stop-color="rgb(100%, 30.723572%, 22.47467%)" offset="0.441406"/><stop stop-opacity="1" stop-color="rgb(100%, 30.984497%, 22.50061%)" offset="0.445312"/><stop stop-opacity="1" stop-color="rgb(100%, 31.243896%, 22.525024%)" offset="0.449219"/><stop stop-opacity="1" stop-color="rgb(100%, 31.504822%, 22.550964%)" offset="0.453125"/><stop stop-opacity="1" stop-color="rgb(100%, 31.765747%, 22.576904%)" offset="0.457031"/><stop stop-opacity="1" stop-color="rgb(100%, 32.026672%, 22.602844%)" offset="0.460938"/><stop stop-opacity="1" stop-color="rgb(100%, 32.286072%, 22.628784%)" offset="0.464844"/><stop stop-opacity="1" stop-color="rgb(100%, 32.546997%, 22.654724%)" offset="0.46875"/><stop stop-opacity="1" stop-color="rgb(100%, 32.807922%, 22.680664%)" offset="0.472656"/><stop stop-opacity="1" stop-color="rgb(100%, 33.068848%, 22.706604%)" offset="0.476562"/><stop stop-opacity="1" stop-color="rgb(100%, 33.328247%, 22.731018%)" offset="0.480469"/><stop stop-opacity="1" stop-color="rgb(100%, 33.589172%, 22.756958%)" offset="0.484375"/><stop stop-opacity="1" stop-color="rgb(100%, 33.848572%, 22.782898%)" offset="0.488281"/><stop stop-opacity="1" stop-color="rgb(100%, 34.109497%, 22.808838%)" offset="0.492187"/><stop stop-opacity="1" stop-color="rgb(100%, 34.370422%, 22.834778%)" offset="0.496094"/><stop stop-opacity="1" stop-color="rgb(100%, 34.631348%, 22.860718%)" offset="0.5"/><stop stop-opacity="1" stop-color="rgb(100%, 34.890747%, 22.886658%)" offset="0.503906"/><stop stop-opacity="1" stop-color="rgb(100%, 35.151672%, 22.912598%)" offset="0.507812"/><stop stop-opacity="1" stop-color="rgb(100%, 35.411072%, 22.937012%)" offset="0.511719"/><stop stop-opacity="1" stop-color="rgb(100%, 35.671997%, 22.962952%)" offset="0.515625"/><stop stop-opacity="1" stop-color="rgb(100%, 35.932922%, 22.988892%)" offset="0.519531"/><stop stop-opacity="1" stop-color="rgb(100%, 36.193848%, 23.014832%)" offset="0.523437"/><stop stop-opacity="1" stop-color="rgb(100%, 36.453247%, 23.040771%)" offset="0.527344"/><stop stop-opacity="1" stop-color="rgb(100%, 36.714172%, 23.066711%)" offset="0.53125"/><stop stop-opacity="1" stop-color="rgb(100%, 36.975098%, 23.092651%)" offset="0.535156"/><stop stop-opacity="1" stop-color="rgb(100%, 37.236023%, 23.118591%)" offset="0.539062"/><stop stop-opacity="1" stop-color="rgb(100%, 37.495422%, 23.143005%)" offset="0.542969"/><stop stop-opacity="1" stop-color="rgb(100%, 37.756348%, 23.168945%)" offset="0.546875"/><stop stop-opacity="1" stop-color="rgb(100%, 38.015747%, 23.194885%)" offset="0.550781"/><stop stop-opacity="1" stop-color="rgb(100%, 38.276672%, 23.220825%)" offset="0.554688"/><stop stop-opacity="1" stop-color="rgb(100%, 38.537598%, 23.246765%)" offset="0.558594"/><stop stop-opacity="1" stop-color="rgb(100%, 38.798523%, 23.272705%)" offset="0.5625"/><stop stop-opacity="1" stop-color="rgb(100%, 39.057922%, 23.298645%)" offset="0.566406"/><stop stop-opacity="1" stop-color="rgb(100%, 39.318848%, 23.324585%)" offset="0.570312"/><stop stop-opacity="1" stop-color="rgb(100%, 39.578247%, 23.348999%)" offset="0.574219"/><stop stop-opacity="1" stop-color="rgb(100%, 39.839172%, 23.374939%)" offset="0.578125"/><stop stop-opacity="1" stop-color="rgb(100%, 40.100098%, 23.400879%)" offset="0.582031"/><stop stop-opacity="1" stop-color="rgb(100%, 40.361023%, 23.426819%)" offset="0.585938"/><stop stop-opacity="1" stop-color="rgb(100%, 40.620422%, 23.452759%)" offset="0.589844"/><stop stop-opacity="1" stop-color="rgb(100%, 40.881348%, 23.478699%)" offset="0.59375"/><stop stop-opacity="1" stop-color="rgb(100%, 41.142273%, 23.504639%)" offset="0.597656"/><stop stop-opacity="1" stop-color="rgb(100%, 41.403198%, 23.530579%)" offset="0.601562"/><stop stop-opacity="1" stop-color="rgb(100%, 41.662598%, 23.554993%)" offset="0.605469"/><stop stop-opacity="1" stop-color="rgb(100%, 41.923523%, 23.580933%)" offset="0.609375"/><stop stop-opacity="1" stop-color="rgb(100%, 42.182922%, 23.606873%)" offset="0.613281"/><stop stop-opacity="1" stop-color="rgb(100%, 42.443848%, 23.632812%)" offset="0.617188"/><stop stop-opacity="1" stop-color="rgb(100%, 42.704773%, 23.658752%)" offset="0.621094"/><stop stop-opacity="1" stop-color="rgb(100%, 42.965698%, 23.684692%)" offset="0.625"/><stop stop-opacity="1" stop-color="rgb(100%, 43.225098%, 23.710632%)" offset="0.628906"/><stop stop-opacity="1" stop-color="rgb(100%, 43.486023%, 23.736572%)" offset="0.632812"/><stop stop-opacity="1" stop-color="rgb(100%, 43.745422%, 23.760986%)" offset="0.636719"/><stop stop-opacity="1" stop-color="rgb(100%, 44.006348%, 23.786926%)" offset="0.640625"/><stop stop-opacity="1" stop-color="rgb(100%, 44.267273%, 23.812866%)" offset="0.644531"/><stop stop-opacity="1" stop-color="rgb(100%, 44.528198%, 23.838806%)" offset="0.648437"/><stop stop-opacity="1" stop-color="rgb(100%, 44.787598%, 23.864746%)" offset="0.652344"/><stop stop-opacity="1" stop-color="rgb(100%, 45.048523%, 23.890686%)" offset="0.65625"/><stop stop-opacity="1" stop-color="rgb(100%, 45.309448%, 23.916626%)" offset="0.660156"/><stop stop-opacity="1" stop-color="rgb(100%, 45.570374%, 23.942566%)" offset="0.664062"/><stop stop-opacity="1" stop-color="rgb(100%, 45.829773%, 23.96698%)" offset="0.667969"/><stop stop-opacity="1" stop-color="rgb(100%, 46.090698%, 23.99292%)" offset="0.671875"/><stop stop-opacity="1" stop-color="rgb(100%, 46.350098%, 24.01886%)" offset="0.675781"/><stop stop-opacity="1" stop-color="rgb(100%, 46.611023%, 24.0448%)" offset="0.679688"/><stop stop-opacity="1" stop-color="rgb(100%, 46.871948%, 24.07074%)" offset="0.683594"/><stop stop-opacity="1" stop-color="rgb(100%, 47.132874%, 24.09668%)" offset="0.6875"/><stop stop-opacity="1" stop-color="rgb(100%, 47.392273%, 24.12262%)" offset="0.691406"/><stop stop-opacity="1" stop-color="rgb(100%, 47.653198%, 24.14856%)" offset="0.695312"/><stop stop-opacity="1" stop-color="rgb(100%, 47.912598%, 24.172974%)" offset="0.699219"/><stop stop-opacity="1" stop-color="rgb(100%, 48.173523%, 24.198914%)" offset="0.703125"/><stop stop-opacity="1" stop-color="rgb(100%, 48.434448%, 24.224854%)" offset="0.707031"/><stop stop-opacity="1" stop-color="rgb(100%, 48.695374%, 24.250793%)" offset="0.710938"/><stop stop-opacity="1" stop-color="rgb(100%, 48.954773%, 24.276733%)" offset="0.714844"/><stop stop-opacity="1" stop-color="rgb(100%, 49.215698%, 24.302673%)" offset="0.71875"/><stop stop-opacity="1" stop-color="rgb(100%, 49.476624%, 24.328613%)" offset="0.722656"/><stop stop-opacity="1" stop-color="rgb(100%, 49.737549%, 24.354553%)" offset="0.726562"/><stop stop-opacity="1" stop-color="rgb(100%, 49.996948%, 24.378967%)" offset="0.730469"/><stop stop-opacity="1" stop-color="rgb(100%, 50.257874%, 24.404907%)" offset="0.734375"/><stop stop-opacity="1" stop-color="rgb(100%, 50.517273%, 24.430847%)" offset="0.738281"/><stop stop-opacity="1" stop-color="rgb(100%, 50.778198%, 24.456787%)" offset="0.742188"/><stop stop-opacity="1" stop-color="rgb(100%, 51.039124%, 24.482727%)" offset="0.746094"/><stop stop-opacity="1" stop-color="rgb(100%, 51.300049%, 24.508667%)" offset="0.75"/><stop stop-opacity="1" stop-color="rgb(100%, 51.559448%, 24.534607%)" offset="0.753906"/><stop stop-opacity="1" stop-color="rgb(100%, 51.820374%, 24.560547%)" offset="0.757812"/><stop stop-opacity="1" stop-color="rgb(100%, 52.079773%, 24.584961%)" offset="0.761719"/><stop stop-opacity="1" stop-color="rgb(100%, 52.340698%, 24.610901%)" offset="0.765625"/><stop stop-opacity="1" stop-color="rgb(100%, 52.601624%, 24.636841%)" offset="0.769531"/><stop stop-opacity="1" stop-color="rgb(100%, 52.862549%, 24.662781%)" offset="0.773438"/><stop stop-opacity="1" stop-color="rgb(100%, 53.096008%, 24.685669%)" offset="0.777344"/><stop stop-opacity="1" stop-color="rgb(100%, 53.329468%, 24.708557%)" offset="0.78125"/><stop stop-opacity="1" stop-color="rgb(100%, 53.329468%, 24.708557%)" offset="0.8125"/><stop stop-opacity="1" stop-color="rgb(100%, 53.329468%, 24.708557%)" offset="0.875"/><stop stop-opacity="1" stop-color="rgb(100%, 53.329468%, 24.708557%)" offset="1"/></linearGradient><clipPath id="71291fe017"><rect x="0" width="534" y="0" height="198"/></clipPath><clipPath id="80317cae9c"><path d="M 0.898438 0 L 534 0 L 534 198 L 0.898438 198 Z M 0.898438 0 " clip-rule="nonzero"/></clipPath><clipPath id="e4a19339e8"><rect x="0" width="534" y="0" height="198"/></clipPath><clipPath id="54092786dc"><rect x="0" width="534" y="0" height="198"/></clipPath><mask id="45c1f737bf"><g filter="url(#d3644c6865)"><g><g clip-path="url(#54092786dc)"><g clip-path="url(#80317cae9c)"><g><g clip-path="url(#e4a19339e8)"><g fill="#000000" fill-opacity="1"><g transform="translate(194.757148, 133.430293)"><g><path d="M 7.265625 -65.328125 C 7.265625 -67.847656 8.039062 -69.109375 9.59375 -69.109375 C 10.238281 -69.109375 10.929688 -68.863281 11.671875 -68.375 C 12.421875 -67.894531 13.410156 -67.070312 14.640625 -65.90625 L 49.53125 -33.140625 L 49.53125 -65.328125 C 49.53125 -66.234375 49.738281 -66.878906 50.15625 -67.265625 C 50.570312 -67.648438 51.203125 -67.84375 52.046875 -67.84375 L 63.78125 -67.84375 C 65.519531 -67.84375 66.390625 -67.003906 66.390625 -65.328125 L 66.390625 -2.515625 C 66.390625 0.00390625 65.613281 1.265625 64.0625 1.265625 C 63.414062 1.265625 62.71875 1.019531 61.96875 0.53125 C 61.226562 0.0507812 60.25 -0.769531 59.03125 -1.9375 L 24.140625 -34.703125 L 24.140625 -2.515625 C 24.140625 -1.609375 23.925781 -0.960938 23.5 -0.578125 C 23.082031 -0.191406 22.421875 0 21.515625 0 L 9.796875 0 C 8.953125 0 8.316406 -0.207031 7.890625 -0.625 C 7.472656 -1.050781 7.265625 -1.679688 7.265625 -2.515625 Z M 7.265625 -65.328125 "/></g></g></g><g fill="#000000" fill-opacity="1"><g transform="translate(268.422744, 133.430293)"><g><path d="M 3.390625 -23.546875 C 3.390625 -28.398438 4.503906 -32.734375 6.734375 -36.546875 C 8.960938 -40.359375 12.0625 -43.328125 16.03125 -45.453125 C 20.007812 -47.585938 24.550781 -48.65625 29.65625 -48.65625 C 34.757812 -48.65625 39.3125 -47.585938 43.3125 -45.453125 C 47.320312 -43.328125 50.441406 -40.375 52.671875 -36.59375 C 54.898438 -32.8125 56.015625 -28.53125 56.015625 -23.75 C 56.015625 -18.96875 54.898438 -14.6875 52.671875 -10.90625 C 50.441406 -7.125 47.304688 -4.164062 43.265625 -2.03125 C 39.234375 0.09375 34.664062 1.15625 29.5625 1.15625 C 24.457031 1.15625 19.914062 0.109375 15.9375 -1.984375 C 11.96875 -4.085938 8.882812 -7.03125 6.6875 -10.8125 C 4.488281 -14.59375 3.390625 -18.835938 3.390625 -23.546875 Z M 29.5625 -13.46875 C 31.300781 -13.46875 32.914062 -13.90625 34.40625 -14.78125 C 35.894531 -15.65625 37.085938 -16.863281 37.984375 -18.40625 C 38.890625 -19.957031 39.34375 -21.738281 39.34375 -23.75 C 39.34375 -25.75 38.890625 -27.523438 37.984375 -29.078125 C 37.085938 -30.628906 35.894531 -31.835938 34.40625 -32.703125 C 32.914062 -33.578125 31.300781 -34.015625 29.5625 -34.015625 C 27.8125 -34.015625 26.207031 -33.578125 24.75 -32.703125 C 23.300781 -31.835938 22.15625 -30.628906 21.3125 -29.078125 C 20.476562 -27.523438 20.0625 -25.75 20.0625 -23.75 C 20.0625 -21.738281 20.476562 -19.957031 21.3125 -18.40625 C 22.15625 -16.863281 23.300781 -15.65625 24.75 -14.78125 C 26.207031 -13.90625 27.8125 -13.46875 29.5625 -13.46875 Z M 29.5625 -13.46875 "/></g></g></g><g fill="#000000" fill-opacity="1"><g transform="translate(327.355233, 133.430293)"><g><path d="M 1.15625 -45.171875 C 1.09375 -45.234375 1.015625 -45.410156 0.921875 -45.703125 C 0.828125 -45.992188 0.78125 -46.234375 0.78125 -46.421875 C 0.78125 -46.742188 0.90625 -47 1.15625 -47.1875 C 1.414062 -47.382812 1.773438 -47.484375 2.234375 -47.484375 L 15.984375 -47.484375 C 16.765625 -47.484375 17.332031 -47.335938 17.6875 -47.046875 C 18.039062 -46.765625 18.445312 -46.171875 18.90625 -45.265625 L 28.015625 -27.71875 L 38.375 -44.96875 C 38.957031 -45.875 39.457031 -46.519531 39.875 -46.90625 C 40.300781 -47.289062 40.769531 -47.484375 41.28125 -47.484375 C 41.800781 -47.484375 42.300781 -47.289062 42.78125 -46.90625 C 43.269531 -46.519531 43.773438 -45.875 44.296875 -44.96875 L 54.65625 -27.71875 L 63.671875 -45.265625 C 64.191406 -46.171875 64.597656 -46.765625 64.890625 -47.046875 C 65.179688 -47.335938 65.710938 -47.484375 66.484375 -47.484375 L 80.0625 -47.484375 C 80.507812 -47.484375 80.863281 -47.382812 81.125 -47.1875 C 81.382812 -47 81.515625 -46.742188 81.515625 -46.421875 C 81.515625 -46.234375 81.460938 -45.992188 81.359375 -45.703125 C 81.265625 -45.410156 81.1875 -45.234375 81.125 -45.171875 L 59.40625 -1.84375 C 58.832031 -0.675781 58.300781 0.160156 57.8125 0.671875 C 57.332031 1.191406 56.800781 1.453125 56.21875 1.453125 C 55.632812 1.453125 55.082031 1.191406 54.5625 0.671875 C 54.050781 0.160156 53.4375 -0.675781 52.71875 -1.84375 L 41.1875 -20.734375 L 29.46875 -1.84375 C 28.75 -0.675781 28.113281 0.160156 27.5625 0.671875 C 27.019531 1.191406 26.488281 1.453125 25.96875 1.453125 C 25.394531 1.453125 24.863281 1.191406 24.375 0.671875 C 23.894531 0.160156 23.363281 -0.675781 22.78125 -1.84375 Z M 1.15625 -45.171875 "/></g></g></g></g></g></g></g></g></g></mask><clipPath id="37d86b84e9"><path d="M 0.898438 0 L 534 0 L 534 198 L 0.898438 198 Z M 0.898438 0 " clip-rule="nonzero"/></clipPath><clipPath id="2bf034b22f"><rect x="0" width="534" y="0" height="198"/></clipPath><clipPath id="384b90848b"><rect x="0" width="534" y="0" height="198"/></clipPath><clipPath id="e0b888fdbb"><rect x="0" width="534" y="0" height="198"/></clipPath><clipPath id="795b3e780a"><path d="M 94.59375 80.386719 L 153.253906 80.386719 L 153.253906 139.042969 L 94.59375 139.042969 Z M 94.59375 80.386719 " clip-rule="nonzero"/></clipPath><clipPath id="86eda7ae78"><path d="M 123.925781 80.386719 C 107.726562 80.386719 94.59375 93.515625 94.59375 109.714844 C 94.59375 125.914062 107.726562 139.042969 123.925781 139.042969 C 140.121094 139.042969 153.253906 125.914062 153.253906 109.714844 C 153.253906 93.515625 140.121094 80.386719 123.925781 80.386719 Z M 123.925781 80.386719 " clip-rule="nonzero"/></clipPath><clipPath id="fb5598cbf2"><path d="M 0.59375 0.386719 L 59.253906 0.386719 L 59.253906 59.042969 L 0.59375 59.042969 Z M 0.59375 0.386719 " clip-rule="nonzero"/></clipPath><clipPath id="ae5e2181ef"><path d="M 29.925781 0.386719 C 13.726562 0.386719 0.59375 13.515625 0.59375 29.714844 C 0.59375 45.914062 13.726562 59.042969 29.925781 59.042969 C 46.121094 59.042969 59.253906 45.914062 59.253906 29.714844 C 59.253906 13.515625 46.121094 0.386719 29.925781 0.386719 Z M 29.925781 0.386719 " clip-rule="nonzero"/></clipPath><clipPath id="a50286952b"><rect x="0" width="60" y="0" height="60"/></clipPath><clipPath id="469acf5a9b"><path d="M 156.976562 80.386719 L 215.636719 80.386719 L 215.636719 139.042969 L 156.976562 139.042969 Z M 156.976562 80.386719 " clip-rule="nonzero"/></clipPath><clipPath id="a2f9a71e6a"><path d="M 186.304688 80.386719 C 170.109375 80.386719 156.976562 93.515625 156.976562 109.714844 C 156.976562 125.914062 170.109375 139.042969 186.304688 139.042969 C 202.503906 139.042969 215.636719 125.914062 215.636719 109.714844 C 215.636719 93.515625 202.503906 80.386719 186.304688 80.386719 Z M 186.304688 80.386719 " clip-rule="nonzero"/></clipPath><clipPath id="5b68972475"><path d="M 0.976562 0.386719 L 59.636719 0.386719 L 59.636719 59.042969 L 0.976562 59.042969 Z M 0.976562 0.386719 " clip-rule="nonzero"/></clipPath><clipPath id="197d1823a4"><path d="M 30.304688 0.386719 C 14.109375 0.386719 0.976562 13.515625 0.976562 29.714844 C 0.976562 45.914062 14.109375 59.042969 30.304688 59.042969 C 46.503906 59.042969 59.636719 45.914062 59.636719 29.714844 C 59.636719 13.515625 46.503906 0.386719 30.304688 0.386719 Z M 30.304688 0.386719 " clip-rule="nonzero"/></clipPath><clipPath id="10fc14a31d"><rect x="0" width="60" y="0" height="60"/></clipPath><clipPath id="7d8c2a756e"><path d="M 145 125 L 156.820312 125 L 156.820312 136 L 145 136 Z M 145 125 " clip-rule="nonzero"/></clipPath><clipPath id="bb5542fbb6"><path d="M 98.320312 82.625 L 153 82.625 L 153 136.625 L 98.320312 136.625 Z M 98.320312 82.625 " clip-rule="nonzero"/></clipPath><clipPath id="01a3e3ad7b"><path d="M 204 125 L 215.476562 125 L 215.476562 136 L 204 136 Z M 204 125 " clip-rule="nonzero"/></clipPath><clipPath id="e723896f35"><path d="M 157 82.625 L 212 82.625 L 212 136.625 L 157 136.625 Z M 157 82.625 " clip-rule="nonzero"/></clipPath></defs><g mask="url(#f993d5f8ef)"><g transform="matrix(1, 0, 0, 1, 297, 31)"><g clip-path="url(#6984321463)"><g clip-path="url(#d7245770bd)"><g transform="matrix(1, 0, 0, 1, 66, 1)"><g clip-path="url(#8972722dad)"><path fill="#ffffff" d="M 190.273438 17.746094 L 143.820312 17.746094 L 143.820312 19.601562 L 190.273438 19.601562 Z M 190.273438 17.746094 " fill-opacity="1" fill-rule="nonzero"/><path fill="#ffffff" d="M 190.273438 20.535156 L 143.820312 20.535156 L 143.820312 21.464844 L 190.273438 21.464844 Z M 190.273438 20.535156 " fill-opacity="1" fill-rule="nonzero"/><path fill="#ffffff" d="M 190.273438 23.320312 L 143.820312 23.320312 L 143.820312 24.246094 L 190.273438 24.246094 Z M 190.273438 23.320312 " fill-opacity="1" fill-rule="nonzero"/><path fill="#ffffff" d="M 190.273438 27.964844 L 143.820312 27.964844 L 143.820312 28.890625 L 190.273438 28.890625 Z M 190.273438 27.964844 " fill-opacity="1" fill-rule="nonzero"/><path fill="#ffffff" d="M 190.273438 30.753906 L 143.820312 30.753906 L 143.820312 33.546875 L 190.273438 33.546875 Z M 190.273438 30.753906 " fill-opacity="1" fill-rule="nonzero"/><path fill="#ffffff" d="M 190.273438 34.464844 L 143.820312 34.464844 L 143.820312 36.320312 L 190.273438 36.320312 Z M 190.273438 34.464844 " fill-opacity="1" fill-rule="nonzero"/><path fill="#ffffff" d="M 190.273438 38.183594 L 143.820312 38.183594 L 143.820312 40.035156 L 190.273438 40.035156 Z M 190.273438 38.183594 " fill-opacity="1" fill-rule="nonzero"/><path fill="#ffffff" d="M 190.273438 40.972656 L 143.820312 40.972656 L 143.820312 42.828125 L 190.273438 42.828125 Z M 190.273438 40.972656 " fill-opacity="1" fill-rule="nonzero"/><path fill="#ffffff" d="M 190.273438 44.683594 L 143.820312 44.683594 L 143.820312 46.539062 L 190.273438 46.539062 Z M 190.273438 44.683594 " fill-opacity="1" fill-rule="nonzero"/><path fill="#ffffff" d="M 190.273438 48.398438 L 143.820312 48.398438 L 143.820312 50.253906 L 190.273438 50.253906 Z M 190.273438 48.398438 " fill-opacity="1" fill-rule="nonzero"/><path fill="#ffffff" d="M 190.273438 52.117188 L 143.820312 52.117188 L 143.820312 53.046875 L 190.273438 53.046875 Z M 190.273438 52.117188 " fill-opacity="1" fill-rule="nonzero"/><path fill="#ffffff" d="M 190.273438 53.972656 L 143.820312 53.972656 L 143.820312 56.761719 L 190.273438 56.761719 Z M 190.273438 53.972656 " fill-opacity="1" fill-rule="nonzero"/><path fill="#ffffff" d="M 190.273438 58.617188 L 143.820312 58.617188 L 143.820312 59.546875 L 190.273438 59.546875 Z M 190.273438 58.617188 " fill-opacity="1" fill-rule="nonzero"/><path fill="#ffffff" d="M 190.273438 60.480469 L 143.820312 60.480469 L 143.820312 63.273438 L 190.273438 63.273438 Z M 190.273438 60.480469 " fill-opacity="1" fill-rule="nonzero"/><path fill="#ffffff" d="M 190.273438 64.191406 L 143.820312 64.191406 L 143.820312 67.910156 L 190.273438 67.910156 Z M 190.273438 64.191406 " fill-opacity="1" fill-rule="nonzero"/><path fill="#ffffff" d="M 190.273438 68.835938 L 143.820312 68.835938 L 143.820312 71.625 L 190.273438 71.625 Z M 190.273438 68.835938 " fill-opacity="1" fill-rule="nonzero"/><path fill="#ffffff" d="M 190.273438 72.554688 L 143.820312 72.554688 L 143.820312 73.480469 L 190.273438 73.480469 Z M 190.273438 72.554688 " fill-opacity="1" fill-rule="nonzero"/><path fill="#ffffff" d="M 190.273438 76.273438 L 143.820312 76.273438 L 143.820312 78.128906 L 190.273438 78.128906 Z M 190.273438 76.273438 " fill-opacity="1" fill-rule="nonzero"/><path fill="#ffffff" d="M 190.273438 79.054688 L 143.820312 79.054688 L 143.820312 79.980469 L 190.273438 79.980469 Z M 190.273438 79.054688 " fill-opacity="1" fill-rule="nonzero"/><path fill="#ffffff" d="M 190.273438 80.917969 L 143.820312 80.917969 L 143.820312 83.707031 L 190.273438 83.707031 Z M 190.273438 80.917969 " fill-opacity="1" fill-rule="nonzero"/><path fill="#ffffff" d="M 190.273438 84.636719 L 143.820312 84.636719 L 143.820312 86.488281 L 190.273438 86.488281 Z M 190.273438 84.636719 " fill-opacity="1" fill-rule="nonzero"/><path fill="#ffffff" d="M 190.273438 89.28125 L 143.820312 89.28125 L 143.820312 90.207031 L 190.273438 90.207031 Z M 190.273438 89.28125 " fill-opacity="1" fill-rule="nonzero"/><path fill="#ffffff" d="M 190.273438 91.136719 L 143.820312 91.136719 L 143.820312 94.851562 L 190.273438 94.851562 Z M 190.273438 91.136719 " fill-opacity="1" fill-rule="nonzero"/><path fill="#ffffff" d="M 190.273438 95.78125 L 143.820312 95.78125 L 143.820312 98.570312 L 190.273438 98.570312 Z M 190.273438 95.78125 " fill-opacity="1" fill-rule="nonzero"/><path fill="#ffffff" d="M 190.273438 99.5 L 143.820312 99.5 L 143.820312 101.355469 L 190.273438 101.355469 Z M 190.273438 99.5 " fill-opacity="1" fill-rule="nonzero"/><path fill="#ffffff" d="M 190.273438 102.28125 L 143.820312 102.28125 L 143.820312 104.136719 L 190.273438 104.136719 Z M 190.273438 102.28125 " fill-opacity="1" fill-rule="nonzero"/><path fill="#ffffff" d="M 190.273438 106 L 143.820312 106 L 143.820312 107.855469 L 190.273438 107.855469 Z M 190.273438 106 " fill-opacity="1" fill-rule="nonzero"/><path fill="#ffffff" d="M 190.273438 109.714844 L 143.820312 109.714844 L 143.820312 111.570312 L 190.273438 111.570312 Z M 190.273438 109.714844 " fill-opacity="1" fill-rule="nonzero"/><g clip-path="url(#11c6803161)"><path fill="#ffffff" d="M -64.582031 125.71875 L 214.085938 125.71875 L 214.085938 110.53125 L 212.824219 110.53125 C 208.636719 110.53125 205.226562 107.121094 205.226562 102.933594 C 205.226562 98.742188 208.636719 95.332031 212.824219 95.332031 L 214.085938 95.332031 L 214.085938 83.960938 L 212.824219 83.960938 C 208.636719 83.960938 205.226562 80.550781 205.226562 76.363281 C 205.226562 72.171875 208.636719 68.761719 212.824219 68.761719 L 214.085938 68.761719 L 214.085938 57.367188 L 212.824219 57.367188 C 208.636719 57.367188 205.226562 53.957031 205.226562 49.765625 C 205.226562 45.578125 208.636719 42.167969 212.824219 42.167969 L 214.085938 42.167969 L 214.085938 30.796875 L 212.824219 30.796875 C 208.636719 30.796875 205.226562 27.386719 205.226562 23.195312 C 205.226562 19.007812 208.636719 15.597656 212.824219 15.597656 L 214.085938 15.597656 L 214.085938 0.410156 L -64.582031 0.410156 L -64.582031 15.597656 L -63.324219 15.597656 C -59.132812 15.597656 -55.722656 19.007812 -55.722656 23.195312 C -55.722656 27.386719 -59.132812 30.796875 -63.324219 30.796875 L -64.582031 30.796875 L -64.582031 42.167969 L -63.324219 42.167969 C -59.132812 42.167969 -55.722656 45.578125 -55.722656 49.765625 C -55.722656 53.957031 -59.132812 57.367188 -63.324219 57.367188 L -64.582031 57.367188 L -64.582031 68.738281 L -63.324219 68.738281 C -59.132812 68.738281 -55.722656 72.148438 -55.722656 76.335938 C -55.722656 80.527344 -59.132812 83.9375 -63.324219 83.9375 L -64.582031 83.9375 L -64.582031 95.308594 L -63.324219 95.308594 C -59.132812 95.308594 -55.722656 98.71875 -55.722656 102.90625 C -55.722656 107.097656 -59.132812 110.507812 -63.324219 110.507812 L -64.582031 110.507812 Z M 211.5625 123.207031 L -62.070312 123.207031 L -62.070312 112.972656 C -57.082031 112.351562 -53.210938 108.082031 -53.210938 102.933594 C -53.210938 97.78125 -57.082031 93.511719 -62.070312 92.894531 L -62.070312 86.394531 C -57.082031 85.773438 -53.210938 81.503906 -53.210938 76.351562 C -53.210938 71.203125 -57.082031 66.933594 -62.070312 66.3125 L -62.070312 59.804688 C -57.082031 59.1875 -53.210938 54.917969 -53.210938 49.765625 C -53.210938 44.617188 -57.082031 40.347656 -62.070312 39.726562 L -62.070312 33.226562 C -57.082031 32.609375 -53.210938 28.339844 -53.210938 23.1875 C -53.210938 18.039062 -57.082031 13.769531 -62.070312 13.148438 L -62.070312 2.914062 L 211.5625 2.914062 L 211.5625 13.148438 C 206.578125 13.769531 202.703125 18.039062 202.703125 23.1875 C 202.703125 28.339844 206.578125 32.609375 211.5625 33.226562 L 211.5625 39.726562 C 206.578125 40.347656 202.703125 44.617188 202.703125 49.765625 C 202.703125 54.917969 206.578125 59.1875 211.5625 59.804688 L 211.5625 66.304688 C 206.578125 66.925781 202.703125 71.195312 202.703125 76.34375 C 202.703125 81.496094 206.578125 85.765625 211.5625 86.382812 L 211.5625 92.882812 C 206.578125 93.503906 202.703125 97.773438 202.703125 102.921875 C 202.703125 108.074219 206.578125 112.34375 211.5625 112.960938 Z M 211.5625 123.207031 " fill-opacity="1" fill-rule="nonzero"/></g><path fill="#ffffff" d="M 128.363281 1.652344 L 125.851562 1.652344 L 125.851562 124.074219 L 128.363281 124.074219 Z M 128.363281 1.652344 " fill-opacity="1" fill-rule="nonzero"/></g></g></g></g></g></g><g transform="matrix(1, 0, 0, 1, 30, 28)"><g clip-path="url(#7042644a1c)"><g fill="#ffffff" fill-opacity="1"><g transform="translate(0.144134, 105.430293)"><g><path d="M 7.265625 -65.328125 C 7.265625 -66.234375 7.472656 -66.878906 7.890625 -67.265625 C 8.316406 -67.648438 8.953125 -67.84375 9.796875 -67.84375 L 35.1875 -67.84375 C 43.644531 -67.84375 50.054688 -66.351562 54.421875 -63.375 C 58.785156 -60.40625 60.96875 -55.597656 60.96875 -48.953125 C 60.96875 -45.648438 60.207031 -42.835938 58.6875 -40.515625 C 57.164062 -38.191406 55.113281 -36.414062 52.53125 -35.1875 C 55.757812 -34.21875 58.328125 -32.4375 60.234375 -29.84375 C 62.140625 -27.257812 63.09375 -24.222656 63.09375 -20.734375 C 63.09375 -13.566406 60.6875 -8.316406 55.875 -4.984375 C 51.0625 -1.660156 44.257812 0 35.46875 0 L 9.796875 0 C 8.953125 0 8.316406 -0.207031 7.890625 -0.625 C 7.472656 -1.050781 7.265625 -1.679688 7.265625 -2.515625 Z M 34.21875 -41.578125 C 37.570312 -41.578125 39.992188 -42.03125 41.484375 -42.9375 C 42.972656 -43.84375 43.71875 -45.328125 43.71875 -47.390625 C 43.71875 -49.460938 42.972656 -50.929688 41.484375 -51.796875 C 39.992188 -52.671875 37.570312 -53.109375 34.21875 -53.109375 L 25.59375 -53.109375 C 25.007812 -53.109375 24.617188 -52.992188 24.421875 -52.765625 C 24.234375 -52.546875 24.140625 -52.175781 24.140625 -51.65625 L 24.140625 -43.03125 C 24.140625 -42.519531 24.234375 -42.148438 24.421875 -41.921875 C 24.617188 -41.691406 25.007812 -41.578125 25.59375 -41.578125 Z M 35.46875 -14.734375 C 39.019531 -14.734375 41.601562 -15.21875 43.21875 -16.1875 C 44.84375 -17.15625 45.65625 -18.707031 45.65625 -20.84375 C 45.65625 -22.96875 44.8125 -24.5 43.125 -25.4375 C 41.445312 -26.375 38.894531 -26.84375 35.46875 -26.84375 L 25.59375 -26.84375 C 25.007812 -26.84375 24.617188 -26.742188 24.421875 -26.546875 C 24.234375 -26.359375 24.140625 -25.972656 24.140625 -25.390625 L 24.140625 -16.1875 C 24.140625 -15.664062 24.234375 -15.289062 24.421875 -15.0625 C 24.617188 -14.84375 25.007812 -14.734375 25.59375 -14.734375 Z M 35.46875 -14.734375 "/></g></g></g><g fill="#ffffff" fill-opacity="1"><g transform="translate(66.152397, 105.430293)"><g><path d="M 3.390625 -23.546875 C 3.390625 -28.398438 4.503906 -32.734375 6.734375 -36.546875 C 8.960938 -40.359375 12.0625 -43.328125 16.03125 -45.453125 C 20.007812 -47.585938 24.550781 -48.65625 29.65625 -48.65625 C 34.757812 -48.65625 39.3125 -47.585938 43.3125 -45.453125 C 47.320312 -43.328125 50.441406 -40.375 52.671875 -36.59375 C 54.898438 -32.8125 56.015625 -28.53125 56.015625 -23.75 C 56.015625 -18.96875 54.898438 -14.6875 52.671875 -10.90625 C 50.441406 -7.125 47.304688 -4.164062 43.265625 -2.03125 C 39.234375 0.09375 34.664062 1.15625 29.5625 1.15625 C 24.457031 1.15625 19.914062 0.109375 15.9375 -1.984375 C 11.96875 -4.085938 8.882812 -7.03125 6.6875 -10.8125 C 4.488281 -14.59375 3.390625 -18.835938 3.390625 -23.546875 Z M 29.5625 -13.46875 C 31.300781 -13.46875 32.914062 -13.90625 34.40625 -14.78125 C 35.894531 -15.65625 37.085938 -16.863281 37.984375 -18.40625 C 38.890625 -19.957031 39.34375 -21.738281 39.34375 -23.75 C 39.34375 -25.75 38.890625 -27.523438 37.984375 -29.078125 C 37.085938 -30.628906 35.894531 -31.835938 34.40625 -32.703125 C 32.914062 -33.578125 31.300781 -34.015625 29.5625 -34.015625 C 27.8125 -34.015625 26.207031 -33.578125 24.75 -32.703125 C 23.300781 -31.835938 22.15625 -30.628906 21.3125 -29.078125 C 20.476562 -27.523438 20.0625 -25.75 20.0625 -23.75 C 20.0625 -21.738281 20.476562 -19.957031 21.3125 -18.40625 C 22.15625 -16.863281 23.300781 -15.65625 24.75 -14.78125 C 26.207031 -13.90625 27.8125 -13.46875 29.5625 -13.46875 Z M 29.5625 -13.46875 "/></g></g></g><g fill="#ffffff" fill-opacity="1"><g transform="translate(125.569525, 105.430293)"><g><path d="M 3.390625 -23.546875 C 3.390625 -28.398438 4.503906 -32.734375 6.734375 -36.546875 C 8.960938 -40.359375 12.0625 -43.328125 16.03125 -45.453125 C 20.007812 -47.585938 24.550781 -48.65625 29.65625 -48.65625 C 34.757812 -48.65625 39.3125 -47.585938 43.3125 -45.453125 C 47.320312 -43.328125 50.441406 -40.375 52.671875 -36.59375 C 54.898438 -32.8125 56.015625 -28.53125 56.015625 -23.75 C 56.015625 -18.96875 54.898438 -14.6875 52.671875 -10.90625 C 50.441406 -7.125 47.304688 -4.164062 43.265625 -2.03125 C 39.234375 0.09375 34.664062 1.15625 29.5625 1.15625 C 24.457031 1.15625 19.914062 0.109375 15.9375 -1.984375 C 11.96875 -4.085938 8.882812 -7.03125 6.6875 -10.8125 C 4.488281 -14.59375 3.390625 -18.835938 3.390625 -23.546875 Z M 29.5625 -13.46875 C 31.300781 -13.46875 32.914062 -13.90625 34.40625 -14.78125 C 35.894531 -15.65625 37.085938 -16.863281 37.984375 -18.40625 C 38.890625 -19.957031 39.34375 -21.738281 39.34375 -23.75 C 39.34375 -25.75 38.890625 -27.523438 37.984375 -29.078125 C 37.085938 -30.628906 35.894531 -31.835938 34.40625 -32.703125 C 32.914062 -33.578125 31.300781 -34.015625 29.5625 -34.015625 C 27.8125 -34.015625 26.207031 -33.578125 24.75 -32.703125 C 23.300781 -31.835938 22.15625 -30.628906 21.3125 -29.078125 C 20.476562 -27.523438 20.0625 -25.75 20.0625 -23.75 C 20.0625 -21.738281 20.476562 -19.957031 21.3125 -18.40625 C 22.15625 -16.863281 23.300781 -15.65625 24.75 -14.78125 C 26.207031 -13.90625 27.8125 -13.46875 29.5625 -13.46875 Z M 29.5625 -13.46875 "/></g></g></g><g fill="#ffffff" fill-opacity="1"><g transform="translate(184.986652, 105.430293)"><g><path d="M 6.296875 -70.171875 C 6.296875 -71.078125 6.503906 -71.722656 6.921875 -72.109375 C 7.347656 -72.492188 7.976562 -72.6875 8.8125 -72.6875 L 19.96875 -72.6875 C 20.875 -72.6875 21.535156 -72.492188 21.953125 -72.109375 C 22.367188 -71.722656 22.578125 -71.078125 22.578125 -70.171875 L 22.578125 -2.515625 C 22.578125 -1.609375 22.367188 -0.960938 21.953125 -0.578125 C 21.535156 -0.191406 20.875 0 19.96875 0 L 8.8125 0 C 7.976562 0 7.347656 -0.207031 6.921875 -0.625 C 6.503906 -1.050781 6.296875 -1.679688 6.296875 -2.515625 Z M 24.421875 -22.390625 C 24.035156 -23.097656 23.84375 -23.679688 23.84375 -24.140625 C 23.84375 -24.648438 24.035156 -25.195312 24.421875 -25.78125 L 36.640625 -45.65625 C 37.085938 -46.363281 37.550781 -46.84375 38.03125 -47.09375 C 38.519531 -47.351562 39.1875 -47.484375 40.03125 -47.484375 L 54.5625 -47.484375 C 55.46875 -47.484375 55.921875 -47.097656 55.921875 -46.328125 C 55.921875 -45.878906 55.789062 -45.492188 55.53125 -45.171875 L 42.15625 -24.71875 L 57.28125 -2.234375 C 57.539062 -1.710938 57.671875 -1.351562 57.671875 -1.15625 C 57.671875 -0.832031 57.539062 -0.554688 57.28125 -0.328125 C 57.019531 -0.109375 56.664062 0 56.21875 0 L 41.1875 0 C 40.28125 0 39.601562 -0.109375 39.15625 -0.328125 C 38.707031 -0.554688 38.253906 -1.03125 37.796875 -1.75 Z M 24.421875 -22.390625 "/></g></g></g></g></g><g transform="matrix(1, 0, 0, 1, 78, 0)"><g clip-path="url(#e0b888fdbb)"><g clip-path="url(#8e39768b0a)"><g><g clip-path="url(#384b90848b)"><g clip-path="url(#1d2b1ff9d2)"><g mask="url(#45c1f737bf)"><g><g clip-path="url(#2bf034b22f)"><g clip-path="url(#37d86b84e9)"><path fill="url(#ceead25f72)" d="M 0.898438 0 L 0.898438 198 L 534 198 L 534 0 Z M 0.898438 0 " fill-rule="nonzero"/></g></g></g></g></g></g></g></g></g></g><g clip-path="url(#795b3e780a)"><g clip-path="url(#86eda7ae78)"><g transform="matrix(1, 0, 0, 1, 94, 80)"><g clip-path="url(#a50286952b)"><g clip-path="url(#fb5598cbf2)"><g clip-path="url(#ae5e2181ef)"><path fill="#000000" d="M 0.59375 0.386719 L 59.253906 0.386719 L 59.253906 59.042969 L 0.59375 59.042969 Z M 0.59375 0.386719 " fill-opacity="1" fill-rule="nonzero"/></g></g></g></g></g></g><g clip-path="url(#469acf5a9b)"><g clip-path="url(#a2f9a71e6a)"><g transform="matrix(1, 0, 0, 1, 156, 80)"><g clip-path="url(#10fc14a31d)"><g clip-path="url(#5b68972475)"><g clip-path="url(#197d1823a4)"><path fill="#000000" d="M 0.976562 0.386719 L 59.636719 0.386719 L 59.636719 59.042969 L 0.976562 59.042969 Z M 0.976562 0.386719 " fill-opacity="1" fill-rule="nonzero"/></g></g></g></g></g></g><g clip-path="url(#7d8c2a756e)"><path fill="#000000" d="M 147.578125 125.355469 C 147.578125 125.355469 149.425781 129.71875 152.558594 129.589844 C 155.691406 129.445312 156.910156 128.324219 156.910156 128.324219 L 155.949219 135.582031 C 155.949219 135.582031 146.621094 135.84375 145.984375 127.402344 C 145.863281 125.792969 147.578125 125.355469 147.578125 125.355469 Z M 147.578125 125.355469 " fill-opacity="1" fill-rule="nonzero"/></g><path fill="#000000" d="M 144.078125 109.714844 C 144.078125 110.324219 144.050781 110.929688 143.988281 111.539062 C 143.929688 112.144531 143.839844 112.746094 143.722656 113.34375 C 143.601562 113.941406 143.457031 114.53125 143.277344 115.117188 C 143.101562 115.699219 142.894531 116.273438 142.664062 116.835938 C 142.429688 117.398438 142.167969 117.949219 141.882812 118.488281 C 141.59375 119.023438 141.28125 119.546875 140.945312 120.054688 C 140.605469 120.558594 140.242188 121.046875 139.855469 121.519531 C 139.46875 121.992188 139.058594 122.441406 138.628906 122.875 C 138.199219 123.304688 137.746094 123.714844 137.277344 124.101562 C 136.804688 124.484375 136.316406 124.847656 135.808594 125.1875 C 135.300781 125.527344 134.78125 125.839844 134.242188 126.125 C 133.703125 126.414062 133.15625 126.675781 132.589844 126.90625 C 132.027344 127.140625 131.453125 127.34375 130.871094 127.523438 C 130.289062 127.699219 129.699219 127.847656 129.101562 127.964844 C 128.503906 128.085938 127.898438 128.175781 127.292969 128.234375 C 126.6875 128.292969 126.078125 128.324219 125.46875 128.324219 C 124.859375 128.324219 124.25 128.292969 123.644531 128.234375 C 123.039062 128.175781 122.4375 128.085938 121.839844 127.964844 C 121.242188 127.847656 120.652344 127.699219 120.066406 127.523438 C 119.484375 127.34375 118.910156 127.140625 118.347656 126.90625 C 117.785156 126.675781 117.234375 126.414062 116.695312 126.125 C 116.160156 125.839844 115.636719 125.527344 115.128906 125.1875 C 114.625 124.847656 114.132812 124.484375 113.664062 124.101562 C 113.191406 123.714844 112.742188 123.304688 112.308594 122.875 C 111.878906 122.441406 111.46875 121.992188 111.082031 121.519531 C 110.695312 121.046875 110.335938 120.558594 109.996094 120.054688 C 109.65625 119.546875 109.34375 119.023438 109.054688 118.488281 C 108.769531 117.949219 108.507812 117.398438 108.277344 116.835938 C 108.042969 116.273438 107.835938 115.699219 107.660156 115.117188 C 107.484375 114.53125 107.335938 113.941406 107.214844 113.34375 C 107.097656 112.746094 107.007812 112.144531 106.949219 111.539062 C 106.890625 110.929688 106.859375 110.324219 106.859375 109.714844 C 106.859375 109.105469 106.890625 108.496094 106.949219 107.890625 C 107.007812 107.28125 107.097656 106.679688 107.214844 106.082031 C 107.335938 105.484375 107.484375 104.894531 107.660156 104.3125 C 107.835938 103.726562 108.042969 103.15625 108.277344 102.589844 C 108.507812 102.027344 108.769531 101.476562 109.054688 100.941406 C 109.34375 100.402344 109.65625 99.882812 109.996094 99.375 C 110.335938 98.867188 110.695312 98.378906 111.082031 97.90625 C 111.46875 97.4375 111.878906 96.984375 112.308594 96.554688 C 112.742188 96.125 113.191406 95.714844 113.664062 95.328125 C 114.132812 94.941406 114.625 94.578125 115.128906 94.238281 C 115.636719 93.902344 116.160156 93.589844 116.695312 93.300781 C 117.234375 93.011719 117.785156 92.753906 118.347656 92.519531 C 118.910156 92.285156 119.484375 92.082031 120.066406 91.90625 C 120.652344 91.726562 121.242188 91.578125 121.839844 91.460938 C 122.4375 91.34375 123.039062 91.253906 123.644531 91.191406 C 124.25 91.132812 124.859375 91.101562 125.46875 91.101562 C 126.078125 91.101562 126.6875 91.132812 127.292969 91.191406 C 127.898438 91.253906 128.503906 91.34375 129.101562 91.460938 C 129.699219 91.578125 130.289062 91.726562 130.871094 91.90625 C 131.453125 92.082031 132.027344 92.285156 132.589844 92.519531 C 133.15625 92.753906 133.703125 93.011719 134.242188 93.300781 C 134.78125 93.589844 135.300781 93.902344 135.808594 94.238281 C 136.316406 94.578125 136.804688 94.941406 137.277344 95.328125 C 137.746094 95.714844 138.199219 96.125 138.628906 96.554688 C 139.058594 96.984375 139.46875 97.4375 139.855469 97.90625 C 140.242188 98.378906 140.605469 98.867188 140.945312 99.375 C 141.28125 99.882812 141.59375 100.402344 141.882812 100.941406 C 142.167969 101.476562 142.429688 102.027344 142.664062 102.589844 C 142.894531 103.15625 143.101562 103.726562 143.277344 104.3125 C 143.457031 104.894531 143.601562 105.484375 143.722656 106.082031 C 143.839844 106.679688 143.929688 107.28125 143.988281 107.890625 C 144.050781 108.496094 144.078125 109.105469 144.078125 109.714844 Z M 144.078125 109.714844 " fill-opacity="1" fill-rule="nonzero"/><g clip-path="url(#bb5542fbb6)"><path fill="#ffffff" d="M 125.46875 82.625 C 110.511719 82.625 98.382812 94.757812 98.382812 109.714844 C 98.382812 124.671875 110.511719 136.800781 125.46875 136.800781 C 140.425781 136.800781 152.558594 124.671875 152.558594 109.714844 C 152.558594 94.757812 140.425781 82.625 125.46875 82.625 Z M 125.46875 87.4375 C 129.570312 87.4375 132.882812 90.761719 132.882812 94.851562 C 132.882812 98.941406 129.558594 102.265625 125.46875 102.265625 C 121.378906 102.265625 118.054688 98.941406 118.054688 94.851562 C 118.054688 90.761719 121.367188 87.4375 125.46875 87.4375 Z M 130.304688 108.851562 C 130.304688 109.359375 129.902344 109.761719 129.394531 109.761719 C 128.886719 109.761719 128.484375 109.359375 128.484375 108.851562 C 128.484375 108.34375 128.886719 107.941406 129.394531 107.941406 C 129.902344 107.941406 130.304688 108.34375 130.304688 108.851562 Z M 126.378906 104.914062 C 126.378906 105.421875 125.976562 105.824219 125.46875 105.824219 C 124.960938 105.824219 124.558594 105.421875 124.558594 104.914062 C 124.558594 104.40625 124.960938 104.003906 125.46875 104.003906 C 125.964844 104.003906 126.378906 104.417969 126.378906 104.914062 Z M 122.441406 108.851562 C 122.441406 109.359375 122.039062 109.761719 121.53125 109.761719 C 121.023438 109.761719 120.621094 109.359375 120.621094 108.851562 C 120.621094 108.34375 121.023438 107.941406 121.53125 107.941406 C 122.039062 107.941406 122.441406 108.34375 122.441406 108.851562 Z M 103.972656 105.539062 C 103.972656 101.449219 107.296875 98.125 111.386719 98.125 C 115.476562 98.125 118.800781 101.449219 118.800781 105.539062 C 118.800781 109.628906 115.476562 112.953125 111.386719 112.953125 C 107.296875 112.953125 103.972656 109.644531 103.972656 105.539062 Z M 116.554688 129.046875 C 112.464844 129.046875 109.140625 125.722656 109.140625 121.632812 C 109.140625 117.539062 112.464844 114.21875 116.554688 114.21875 C 120.65625 114.21875 123.96875 117.539062 123.96875 121.632812 C 123.96875 125.722656 120.644531 129.046875 116.554688 129.046875 Z M 123.398438 108.851562 C 123.398438 107.703125 124.324219 106.78125 125.46875 106.78125 C 126.617188 106.78125 127.539062 107.703125 127.539062 108.851562 C 127.539062 109.996094 126.617188 110.917969 125.46875 110.917969 C 124.324219 110.917969 123.398438 109.984375 123.398438 108.851562 Z M 125.46875 113.6875 C 124.960938 113.6875 124.558594 113.285156 124.558594 112.777344 C 124.558594 112.265625 124.960938 111.867188 125.46875 111.867188 C 125.976562 111.867188 126.378906 112.265625 126.378906 112.777344 C 126.378906 113.285156 125.964844 113.6875 125.46875 113.6875 Z M 134.242188 129.046875 C 130.152344 129.046875 126.828125 125.722656 126.828125 121.632812 C 126.828125 117.539062 130.152344 114.21875 134.242188 114.21875 C 138.34375 114.21875 141.65625 117.539062 141.65625 121.632812 C 141.667969 125.722656 138.34375 129.046875 134.242188 129.046875 Z M 139.539062 112.964844 C 135.449219 112.964844 132.125 109.644531 132.125 105.550781 C 132.125 101.460938 135.449219 98.125 139.539062 98.125 C 143.640625 98.125 146.953125 101.449219 146.953125 105.539062 C 146.953125 109.628906 143.640625 112.964844 139.539062 112.964844 Z M 139.539062 112.964844 " fill-opacity="1" fill-rule="nonzero"/></g><path fill="#e6e6e6" d="M 125.648438 134.648438 C 111.894531 134.648438 100.699219 123.464844 100.699219 109.703125 C 100.699219 95.949219 111.882812 84.753906 125.648438 84.753906 C 139.398438 84.753906 150.59375 95.9375 150.59375 109.703125 C 150.582031 123.464844 139.398438 134.648438 125.648438 134.648438 Z M 125.648438 85.949219 C 112.546875 85.949219 101.882812 96.613281 101.882812 109.714844 C 101.882812 122.8125 112.546875 133.480469 125.648438 133.480469 C 138.746094 133.480469 149.414062 122.8125 149.414062 109.714844 C 149.402344 96.613281 138.746094 85.949219 125.648438 85.949219 Z M 125.648438 85.949219 " fill-opacity="1" fill-rule="nonzero"/><g clip-path="url(#01a3e3ad7b)"><path fill="#000000" d="M 206.238281 125.355469 C 206.238281 125.355469 208.082031 129.71875 211.214844 129.589844 C 214.347656 129.445312 215.566406 128.324219 215.566406 128.324219 L 214.609375 135.582031 C 214.609375 135.582031 205.28125 135.84375 204.640625 127.402344 C 204.523438 125.792969 206.238281 125.355469 206.238281 125.355469 Z M 206.238281 125.355469 " fill-opacity="1" fill-rule="nonzero"/></g><path fill="#000000" d="M 202.738281 109.714844 C 202.738281 110.324219 202.707031 110.929688 202.648438 111.539062 C 202.589844 112.144531 202.5 112.746094 202.378906 113.34375 C 202.261719 113.941406 202.113281 114.53125 201.9375 115.117188 C 201.761719 115.699219 201.554688 116.273438 201.320312 116.835938 C 201.089844 117.398438 200.828125 117.949219 200.539062 118.488281 C 200.253906 119.023438 199.941406 119.546875 199.601562 120.054688 C 199.261719 120.558594 198.902344 121.046875 198.515625 121.519531 C 198.128906 121.992188 197.71875 122.441406 197.289062 122.875 C 196.855469 123.304688 196.40625 123.714844 195.933594 124.101562 C 195.464844 124.484375 194.972656 124.847656 194.46875 125.1875 C 193.960938 125.527344 193.4375 125.839844 192.902344 126.125 C 192.363281 126.414062 191.8125 126.675781 191.25 126.90625 C 190.6875 127.140625 190.113281 127.34375 189.53125 127.523438 C 188.945312 127.699219 188.355469 127.847656 187.757812 127.964844 C 187.160156 128.085938 186.558594 128.175781 185.953125 128.234375 C 185.34375 128.292969 184.738281 128.324219 184.128906 128.324219 C 183.519531 128.324219 182.910156 128.292969 182.304688 128.234375 C 181.695312 128.175781 181.09375 128.085938 180.496094 127.964844 C 179.898438 127.847656 179.308594 127.699219 178.726562 127.523438 C 178.140625 127.34375 177.570312 127.140625 177.007812 126.90625 C 176.441406 126.675781 175.890625 126.414062 175.355469 126.125 C 174.816406 125.839844 174.296875 125.527344 173.789062 125.1875 C 173.28125 124.847656 172.792969 124.484375 172.320312 124.101562 C 171.851562 123.714844 171.398438 123.304688 170.96875 122.875 C 170.539062 122.441406 170.128906 121.992188 169.742188 121.519531 C 169.355469 121.046875 168.992188 120.558594 168.652344 120.054688 C 168.316406 119.546875 168.003906 119.023438 167.714844 118.488281 C 167.425781 117.949219 167.167969 117.398438 166.933594 116.835938 C 166.699219 116.273438 166.496094 115.699219 166.320312 115.117188 C 166.140625 114.53125 165.992188 113.941406 165.875 113.34375 C 165.757812 112.746094 165.667969 112.144531 165.605469 111.539062 C 165.546875 110.929688 165.515625 110.324219 165.515625 109.714844 C 165.515625 109.105469 165.546875 108.496094 165.605469 107.890625 C 165.667969 107.28125 165.757812 106.679688 165.875 106.082031 C 165.992188 105.484375 166.140625 104.894531 166.320312 104.3125 C 166.496094 103.726562 166.699219 103.15625 166.933594 102.589844 C 167.167969 102.027344 167.425781 101.476562 167.714844 100.941406 C 168.003906 100.402344 168.316406 99.882812 168.652344 99.375 C 168.992188 98.867188 169.355469 98.378906 169.742188 97.90625 C 170.128906 97.4375 170.539062 96.984375 170.96875 96.554688 C 171.398438 96.125 171.851562 95.714844 172.320312 95.328125 C 172.792969 94.941406 173.28125 94.578125 173.789062 94.238281 C 174.296875 93.902344 174.816406 93.589844 175.355469 93.300781 C 175.890625 93.011719 176.441406 92.753906 177.007812 92.519531 C 177.570312 92.285156 178.140625 92.082031 178.726562 91.90625 C 179.308594 91.726562 179.898438 91.578125 180.496094 91.460938 C 181.09375 91.34375 181.695312 91.253906 182.304688 91.191406 C 182.910156 91.132812 183.519531 91.101562 184.128906 91.101562 C 184.738281 91.101562 185.34375 91.132812 185.953125 91.191406 C 186.558594 91.253906 187.160156 91.34375 187.757812 91.460938 C 188.355469 91.578125 188.945312 91.726562 189.53125 91.90625 C 190.113281 92.082031 190.6875 92.285156 191.25 92.519531 C 191.8125 92.753906 192.363281 93.011719 192.902344 93.300781 C 193.4375 93.589844 193.960938 93.902344 194.46875 94.238281 C 194.972656 94.578125 195.464844 94.941406 195.933594 95.328125 C 196.40625 95.714844 196.855469 96.125 197.289062 96.554688 C 197.71875 96.984375 198.128906 97.4375 198.515625 97.90625 C 198.902344 98.378906 199.261719 98.867188 199.601562 99.375 C 199.941406 99.882812 200.253906 100.402344 200.539062 100.941406 C 200.828125 101.476562 201.089844 102.027344 201.320312 102.589844 C 201.554688 103.15625 201.761719 103.726562 201.9375 104.3125 C 202.113281 104.894531 202.261719 105.484375 202.378906 106.082031 C 202.5 106.679688 202.589844 107.28125 202.648438 107.890625 C 202.707031 108.496094 202.738281 109.105469 202.738281 109.714844 Z M 202.738281 109.714844 " fill-opacity="1" fill-rule="nonzero"/><g clip-path="url(#e723896f35)"><path fill="#ffffff" d="M 184.128906 82.625 C 169.171875 82.625 157.039062 94.757812 157.039062 109.714844 C 157.039062 124.671875 169.171875 136.800781 184.128906 136.800781 C 199.085938 136.800781 211.214844 124.671875 211.214844 109.714844 C 211.214844 94.757812 199.085938 82.625 184.128906 82.625 Z M 184.128906 87.4375 C 188.230469 87.4375 191.542969 90.761719 191.542969 94.851562 C 191.542969 98.941406 188.21875 102.265625 184.128906 102.265625 C 180.035156 102.265625 176.714844 98.941406 176.714844 94.851562 C 176.714844 90.761719 180.023438 87.4375 184.128906 87.4375 Z M 188.964844 108.851562 C 188.964844 109.359375 188.5625 109.761719 188.054688 109.761719 C 187.542969 109.761719 187.144531 109.359375 187.144531 108.851562 C 187.144531 108.34375 187.542969 107.941406 188.054688 107.941406 C 188.5625 107.941406 188.964844 108.34375 188.964844 108.851562 Z M 185.039062 104.914062 C 185.039062 105.421875 184.636719 105.824219 184.128906 105.824219 C 183.621094 105.824219 183.21875 105.421875 183.21875 104.914062 C 183.21875 104.40625 183.621094 104.003906 184.128906 104.003906 C 184.625 104.003906 185.039062 104.417969 185.039062 104.914062 Z M 181.101562 108.851562 C 181.101562 109.359375 180.699219 109.761719 180.191406 109.761719 C 179.683594 109.761719 179.28125 109.359375 179.28125 108.851562 C 179.28125 108.34375 179.683594 107.941406 180.191406 107.941406 C 180.699219 107.941406 181.101562 108.34375 181.101562 108.851562 Z M 162.632812 105.539062 C 162.632812 101.449219 165.953125 98.125 170.046875 98.125 C 174.136719 98.125 177.460938 101.449219 177.460938 105.539062 C 177.460938 109.628906 174.136719 112.953125 170.046875 112.953125 C 165.953125 112.953125 162.632812 109.644531 162.632812 105.539062 Z M 175.210938 129.046875 C 171.121094 129.046875 167.800781 125.722656 167.800781 121.632812 C 167.800781 117.539062 171.121094 114.21875 175.210938 114.21875 C 179.316406 114.21875 182.625 117.539062 182.625 121.632812 C 182.625 125.722656 179.304688 129.046875 175.210938 129.046875 Z M 182.058594 108.851562 C 182.058594 107.703125 182.980469 106.78125 184.128906 106.78125 C 185.273438 106.78125 186.195312 107.703125 186.195312 108.851562 C 186.195312 109.996094 185.273438 110.917969 184.128906 110.917969 C 182.980469 110.917969 182.058594 109.984375 182.058594 108.851562 Z M 184.128906 113.6875 C 183.621094 113.6875 183.21875 113.285156 183.21875 112.777344 C 183.21875 112.265625 183.621094 111.867188 184.128906 111.867188 C 184.636719 111.867188 185.039062 112.265625 185.039062 112.777344 C 185.039062 113.285156 184.625 113.6875 184.128906 113.6875 Z M 192.902344 129.046875 C 188.808594 129.046875 185.488281 125.722656 185.488281 121.632812 C 185.488281 117.539062 188.808594 114.21875 192.902344 114.21875 C 197.003906 114.21875 200.3125 117.539062 200.3125 121.632812 C 200.328125 125.722656 197.003906 129.046875 192.902344 129.046875 Z M 198.199219 112.964844 C 194.105469 112.964844 190.785156 109.644531 190.785156 105.550781 C 190.785156 101.460938 194.105469 98.125 198.199219 98.125 C 202.300781 98.125 205.613281 101.449219 205.613281 105.539062 C 205.613281 109.628906 202.300781 112.964844 198.199219 112.964844 Z M 198.199219 112.964844 " fill-opacity="1" fill-rule="nonzero"/></g><path fill="#e6e6e6" d="M 184.304688 134.648438 C 170.554688 134.648438 159.355469 123.464844 159.355469 109.703125 C 159.355469 95.949219 170.542969 84.753906 184.304688 84.753906 C 198.054688 84.753906 209.253906 95.9375 209.253906 109.703125 C 209.242188 123.464844 198.054688 134.648438 184.304688 134.648438 Z M 184.304688 85.949219 C 171.203125 85.949219 160.539062 96.613281 160.539062 109.714844 C 160.539062 122.8125 171.203125 133.480469 184.304688 133.480469 C 197.40625 133.480469 208.070312 122.8125 208.070312 109.714844 C 208.058594 96.613281 197.40625 85.949219 184.304688 85.949219 Z M 184.304688 85.949219 " fill-opacity="1" fill-rule="nonzero"/></svg>