<svg xmlns="http://www.w3.org/2000/svg" xmlns:xlink="http://www.w3.org/1999/xlink" width="500" zoomAndPan="magnify" viewBox="0 0 375 374.999991" height="500" preserveAspectRatio="xMidYMid meet" version="1.0"><defs><clipPath id="5d28f86c91"><path d="M 2.488281 2.207031 L 375 2.207031 L 375 220.703125 L 2.488281 220.703125 Z M 2.488281 2.207031 " clip-rule="nonzero"/></clipPath><clipPath id="747cf73484"><path d="M 0.488281 0.207031 L 372.992188 0.207031 L 372.992188 218.703125 L 0.488281 218.703125 Z M 0.488281 0.207031 " clip-rule="nonzero"/></clipPath><clipPath id="0066aab770"><rect x="0" width="373" y="0" height="219"/></clipPath><clipPath id="fa69709657"><path d="M 179 80 L 194.203125 80 L 194.203125 95 L 179 95 Z M 179 80 " clip-rule="nonzero"/></clipPath><clipPath id="fdceced69b"><path d="M 115 22.644531 L 189 22.644531 L 189 96 L 115 96 Z M 115 22.644531 " clip-rule="nonzero"/></clipPath><clipPath id="1a79567dae"><path d="M 179 183 L 194.203125 183 L 194.203125 198 L 179 198 Z M 179 183 " clip-rule="nonzero"/></clipPath><clipPath id="26b8fb40a9"><path d="M 115 125.453125 L 189 125.453125 L 189 198.84375 L 115 198.84375 Z M 115 125.453125 " clip-rule="nonzero"/></clipPath><clipPath id="1c9044af07"><rect x="0" width="375" y="0" height="223"/></clipPath></defs><g transform="matrix(1, 0, 0, 1, 0, 76)"><g clip-path="url(#1c9044af07)"><g clip-path="url(#5d28f86c91)"><g transform="matrix(1, 0, 0, 1, 2, 2)"><g clip-path="url(#0066aab770)"><path fill="#ffffff" d="M 331.070312 30.4375 L 250.027344 30.4375 L 250.027344 33.675781 L 331.070312 33.675781 Z M 331.070312 30.4375 " fill-opacity="1" fill-rule="nonzero"/><path fill="#ffffff" d="M 331.070312 35.304688 L 250.027344 35.304688 L 250.027344 36.925781 L 331.070312 36.925781 Z M 331.070312 35.304688 " fill-opacity="1" fill-rule="nonzero"/><path fill="#ffffff" d="M 331.070312 40.160156 L 250.027344 40.160156 L 250.027344 41.777344 L 331.070312 41.777344 Z M 331.070312 40.160156 " fill-opacity="1" fill-rule="nonzero"/><path fill="#ffffff" d="M 331.070312 48.265625 L 250.027344 48.265625 L 250.027344 49.882812 L 331.070312 49.882812 Z M 331.070312 48.265625 " fill-opacity="1" fill-rule="nonzero"/><path fill="#ffffff" d="M 331.070312 53.132812 L 250.027344 53.132812 L 250.027344 58 L 331.070312 58 Z M 331.070312 53.132812 " fill-opacity="1" fill-rule="nonzero"/><path fill="#ffffff" d="M 331.070312 59.605469 L 250.027344 59.605469 L 250.027344 62.839844 L 331.070312 62.839844 Z M 331.070312 59.605469 " fill-opacity="1" fill-rule="nonzero"/><path fill="#ffffff" d="M 331.070312 66.089844 L 250.027344 66.089844 L 250.027344 69.328125 L 331.070312 69.328125 Z M 331.070312 66.089844 " fill-opacity="1" fill-rule="nonzero"/><path fill="#ffffff" d="M 331.070312 70.960938 L 250.027344 70.960938 L 250.027344 74.195312 L 331.070312 74.195312 Z M 331.070312 70.960938 " fill-opacity="1" fill-rule="nonzero"/><path fill="#ffffff" d="M 331.070312 77.429688 L 250.027344 77.429688 L 250.027344 80.667969 L 331.070312 80.667969 Z M 331.070312 77.429688 " fill-opacity="1" fill-rule="nonzero"/><path fill="#ffffff" d="M 331.070312 83.917969 L 250.027344 83.917969 L 250.027344 87.152344 L 331.070312 87.152344 Z M 331.070312 83.917969 " fill-opacity="1" fill-rule="nonzero"/><path fill="#ffffff" d="M 331.070312 90.402344 L 250.027344 90.402344 L 250.027344 92.023438 L 331.070312 92.023438 Z M 331.070312 90.402344 " fill-opacity="1" fill-rule="nonzero"/><path fill="#ffffff" d="M 331.070312 93.640625 L 250.027344 93.640625 L 250.027344 98.507812 L 331.070312 98.507812 Z M 331.070312 93.640625 " fill-opacity="1" fill-rule="nonzero"/><path fill="#ffffff" d="M 331.070312 101.746094 L 250.027344 101.746094 L 250.027344 103.363281 L 331.070312 103.363281 Z M 331.070312 101.746094 " fill-opacity="1" fill-rule="nonzero"/><path fill="#ffffff" d="M 331.070312 104.996094 L 250.027344 104.996094 L 250.027344 109.863281 L 331.070312 109.863281 Z M 331.070312 104.996094 " fill-opacity="1" fill-rule="nonzero"/><path fill="#ffffff" d="M 331.070312 111.464844 L 250.027344 111.464844 L 250.027344 117.953125 L 331.070312 117.953125 Z M 331.070312 111.464844 " fill-opacity="1" fill-rule="nonzero"/><path fill="#ffffff" d="M 331.070312 119.570312 L 250.027344 119.570312 L 250.027344 124.4375 L 331.070312 124.4375 Z M 331.070312 119.570312 " fill-opacity="1" fill-rule="nonzero"/><path fill="#ffffff" d="M 331.070312 126.058594 L 250.027344 126.058594 L 250.027344 127.675781 L 331.070312 127.675781 Z M 331.070312 126.058594 " fill-opacity="1" fill-rule="nonzero"/><path fill="#ffffff" d="M 331.070312 132.542969 L 250.027344 132.542969 L 250.027344 135.78125 L 331.070312 135.78125 Z M 331.070312 132.542969 " fill-opacity="1" fill-rule="nonzero"/><path fill="#ffffff" d="M 331.070312 137.398438 L 250.027344 137.398438 L 250.027344 139.015625 L 331.070312 139.015625 Z M 331.070312 137.398438 " fill-opacity="1" fill-rule="nonzero"/><path fill="#ffffff" d="M 331.070312 140.648438 L 250.027344 140.648438 L 250.027344 145.515625 L 331.070312 145.515625 Z M 331.070312 140.648438 " fill-opacity="1" fill-rule="nonzero"/><path fill="#ffffff" d="M 331.070312 147.132812 L 250.027344 147.132812 L 250.027344 150.371094 L 331.070312 150.371094 Z M 331.070312 147.132812 " fill-opacity="1" fill-rule="nonzero"/><path fill="#ffffff" d="M 331.070312 155.238281 L 250.027344 155.238281 L 250.027344 156.855469 L 331.070312 156.855469 Z M 331.070312 155.238281 " fill-opacity="1" fill-rule="nonzero"/><path fill="#ffffff" d="M 331.070312 158.472656 L 250.027344 158.472656 L 250.027344 164.960938 L 331.070312 164.960938 Z M 331.070312 158.472656 " fill-opacity="1" fill-rule="nonzero"/><path fill="#ffffff" d="M 331.070312 166.578125 L 250.027344 166.578125 L 250.027344 171.445312 L 331.070312 171.445312 Z M 331.070312 166.578125 " fill-opacity="1" fill-rule="nonzero"/><path fill="#ffffff" d="M 331.070312 173.066406 L 250.027344 173.066406 L 250.027344 176.300781 L 331.070312 176.300781 Z M 331.070312 173.066406 " fill-opacity="1" fill-rule="nonzero"/><path fill="#ffffff" d="M 331.070312 177.917969 L 250.027344 177.917969 L 250.027344 181.15625 L 331.070312 181.15625 Z M 331.070312 177.917969 " fill-opacity="1" fill-rule="nonzero"/><path fill="#ffffff" d="M 331.070312 184.40625 L 250.027344 184.40625 L 250.027344 187.640625 L 331.070312 187.640625 Z M 331.070312 184.40625 " fill-opacity="1" fill-rule="nonzero"/><path fill="#ffffff" d="M 331.070312 190.890625 L 250.027344 190.890625 L 250.027344 194.128906 L 331.070312 194.128906 Z M 331.070312 190.890625 " fill-opacity="1" fill-rule="nonzero"/><g clip-path="url(#747cf73484)"><path fill="#ffffff" d="M -113.558594 218.808594 L 372.613281 218.808594 L 372.613281 192.308594 L 370.410156 192.308594 C 363.101562 192.308594 357.15625 186.363281 357.15625 179.054688 C 357.15625 171.746094 363.101562 165.796875 370.410156 165.796875 L 372.613281 165.796875 L 372.613281 145.957031 L 370.410156 145.957031 C 363.101562 145.957031 357.15625 140.007812 357.15625 132.699219 C 357.15625 125.390625 363.101562 119.441406 370.410156 119.441406 L 372.613281 119.441406 L 372.613281 99.558594 L 370.410156 99.558594 C 363.101562 99.558594 357.15625 93.613281 357.15625 86.300781 C 357.15625 78.992188 363.101562 73.046875 370.410156 73.046875 L 372.613281 73.046875 L 372.613281 53.203125 L 370.410156 53.203125 C 363.101562 53.203125 357.15625 47.257812 357.15625 39.949219 C 357.15625 32.636719 363.101562 26.691406 370.410156 26.691406 L 372.613281 26.691406 L 372.613281 0.191406 L -113.558594 0.191406 L -113.558594 26.691406 L -111.359375 26.691406 C -104.046875 26.691406 -98.101562 32.636719 -98.101562 39.949219 C -98.101562 47.257812 -104.046875 53.203125 -111.359375 53.203125 L -113.558594 53.203125 L -113.558594 73.046875 L -111.359375 73.046875 C -104.046875 73.046875 -98.101562 78.992188 -98.101562 86.300781 C -98.101562 93.613281 -104.046875 99.558594 -111.359375 99.558594 L -113.558594 99.558594 L -113.558594 119.402344 L -111.359375 119.402344 C -104.046875 119.402344 -98.101562 125.347656 -98.101562 132.65625 C -98.101562 139.964844 -104.046875 145.914062 -111.359375 145.914062 L -113.558594 145.914062 L -113.558594 165.753906 L -111.359375 165.753906 C -104.046875 165.753906 -98.101562 171.703125 -98.101562 179.011719 C -98.101562 186.320312 -104.046875 192.269531 -111.359375 192.269531 L -113.558594 192.269531 Z M 368.210938 214.421875 L -109.171875 214.421875 L -109.171875 196.570312 C -100.472656 195.488281 -93.714844 188.039062 -93.714844 179.054688 C -93.714844 170.070312 -100.472656 162.617188 -109.171875 161.539062 L -109.171875 150.199219 C -100.472656 149.121094 -93.714844 141.667969 -93.714844 132.683594 C -93.714844 123.699219 -100.472656 116.25 -109.171875 115.171875 L -109.171875 103.816406 C -100.472656 102.738281 -93.714844 95.285156 -93.714844 86.300781 C -93.714844 77.316406 -100.472656 69.867188 -109.171875 68.789062 L -109.171875 57.449219 C -100.472656 56.367188 -93.714844 48.917969 -93.714844 39.933594 C -93.714844 30.949219 -100.472656 23.496094 -109.171875 22.417969 L -109.171875 4.5625 L 368.210938 4.5625 L 368.210938 22.417969 C 359.511719 23.496094 352.757812 30.949219 352.757812 39.933594 C 352.757812 48.917969 359.511719 56.367188 368.210938 57.449219 L 368.210938 68.789062 C 359.511719 69.867188 352.757812 77.316406 352.757812 86.300781 C 352.757812 95.285156 359.511719 102.738281 368.210938 103.816406 L 368.210938 115.15625 C 359.511719 116.234375 352.757812 123.6875 352.757812 132.671875 C 352.757812 141.65625 359.511719 149.105469 368.210938 150.183594 L 368.210938 161.527344 C 359.511719 162.605469 352.757812 170.054688 352.757812 179.039062 C 352.757812 188.023438 359.511719 195.476562 368.210938 196.554688 Z M 368.210938 214.421875 " fill-opacity="1" fill-rule="nonzero"/></g><path fill="#ffffff" d="M 223.058594 2.363281 L 218.671875 2.363281 L 218.671875 215.941406 L 223.058594 215.941406 Z M 223.058594 2.363281 " fill-opacity="1" fill-rule="nonzero"/></g></g></g><g clip-path="url(#fa69709657)"><path fill="#000000" d="M 181.640625 80.46875 C 181.640625 80.46875 184.136719 86.371094 188.378906 86.195312 C 192.617188 86.003906 194.265625 84.484375 194.265625 84.484375 L 192.96875 94.308594 C 192.96875 94.308594 180.347656 94.660156 179.480469 83.234375 C 179.320312 81.058594 181.640625 80.46875 181.640625 80.46875 Z M 181.640625 80.46875 " fill-opacity="1" fill-rule="nonzero"/></g><path fill="#000000" d="M 176.90625 59.300781 C 176.90625 60.125 176.867188 60.949219 176.785156 61.769531 C 176.703125 62.589844 176.582031 63.40625 176.421875 64.214844 C 176.261719 65.023438 176.0625 65.820312 175.820312 66.609375 C 175.582031 67.398438 175.304688 68.175781 174.988281 68.9375 C 174.671875 69.699219 174.320312 70.445312 173.933594 71.171875 C 173.542969 71.898438 173.121094 72.605469 172.660156 73.292969 C 172.203125 73.976562 171.714844 74.640625 171.191406 75.277344 C 170.667969 75.914062 170.113281 76.523438 169.53125 77.109375 C 168.945312 77.691406 168.335938 78.246094 167.699219 78.769531 C 167.0625 79.289062 166.398438 79.78125 165.714844 80.238281 C 165.027344 80.699219 164.320312 81.121094 163.59375 81.511719 C 162.867188 81.898438 162.121094 82.25 161.359375 82.566406 C 160.597656 82.882812 159.824219 83.160156 159.035156 83.398438 C 158.242188 83.640625 157.445312 83.839844 156.636719 84 C 155.828125 84.160156 155.011719 84.28125 154.191406 84.363281 C 153.371094 84.445312 152.546875 84.484375 151.722656 84.484375 C 150.898438 84.484375 150.074219 84.445312 149.253906 84.363281 C 148.433594 84.28125 147.617188 84.160156 146.808594 84 C 146 83.839844 145.203125 83.640625 144.414062 83.398438 C 143.625 83.160156 142.847656 82.882812 142.085938 82.566406 C 141.324219 82.25 140.578125 81.898438 139.851562 81.511719 C 139.125 81.121094 138.417969 80.699219 137.730469 80.238281 C 137.046875 79.78125 136.382812 79.289062 135.746094 78.769531 C 135.109375 78.246094 134.5 77.691406 133.914062 77.109375 C 133.332031 76.523438 132.78125 75.914062 132.257812 75.277344 C 131.734375 74.640625 131.242188 73.976562 130.785156 73.292969 C 130.324219 72.605469 129.902344 71.898438 129.511719 71.171875 C 129.125 70.445312 128.773438 69.699219 128.457031 68.9375 C 128.140625 68.175781 127.863281 67.398438 127.625 66.609375 C 127.382812 65.820312 127.183594 65.023438 127.023438 64.214844 C 126.863281 63.40625 126.742188 62.589844 126.660156 61.769531 C 126.582031 60.949219 126.539062 60.125 126.539062 59.300781 C 126.539062 58.476562 126.582031 57.652344 126.660156 56.832031 C 126.742188 56.011719 126.863281 55.195312 127.023438 54.386719 C 127.183594 53.578125 127.382812 52.78125 127.625 51.992188 C 127.863281 51.203125 128.140625 50.425781 128.457031 49.664062 C 128.773438 48.902344 129.125 48.15625 129.511719 47.429688 C 129.902344 46.703125 130.324219 45.996094 130.785156 45.308594 C 131.242188 44.625 131.734375 43.960938 132.257812 43.324219 C 132.78125 42.6875 133.332031 42.078125 133.914062 41.492188 C 134.5 40.910156 135.109375 40.355469 135.746094 39.832031 C 136.382812 39.3125 137.046875 38.820312 137.730469 38.363281 C 138.417969 37.902344 139.125 37.480469 139.851562 37.089844 C 140.578125 36.703125 141.324219 36.351562 142.085938 36.035156 C 142.847656 35.71875 143.625 35.441406 144.414062 35.203125 C 145.203125 34.960938 146 34.761719 146.808594 34.601562 C 147.617188 34.441406 148.433594 34.320312 149.253906 34.238281 C 150.074219 34.15625 150.898438 34.117188 151.722656 34.117188 C 152.546875 34.117188 153.371094 34.15625 154.191406 34.238281 C 155.011719 34.320312 155.828125 34.441406 156.636719 34.601562 C 157.445312 34.761719 158.242188 34.960938 159.035156 35.203125 C 159.824219 35.441406 160.597656 35.71875 161.359375 36.035156 C 162.121094 36.351562 162.867188 36.703125 163.59375 37.089844 C 164.320312 37.480469 165.027344 37.902344 165.714844 38.363281 C 166.398438 38.820312 167.0625 39.3125 167.699219 39.832031 C 168.335938 40.355469 168.945312 40.910156 169.53125 41.492188 C 170.113281 42.078125 170.667969 42.6875 171.191406 43.324219 C 171.714844 43.960938 172.203125 44.625 172.660156 45.308594 C 173.121094 45.996094 173.542969 46.703125 173.933594 47.429688 C 174.320312 48.15625 174.671875 48.902344 174.988281 49.664062 C 175.304688 50.425781 175.582031 51.203125 175.820312 51.992188 C 176.0625 52.78125 176.261719 53.578125 176.421875 54.386719 C 176.582031 55.195312 176.703125 56.011719 176.785156 56.832031 C 176.867188 57.652344 176.90625 58.476562 176.90625 59.300781 Z M 176.90625 59.300781 " fill-opacity="1" fill-rule="nonzero"/><g clip-path="url(#fdceced69b)"><path fill="#ffffff" d="M 151.722656 22.644531 C 131.484375 22.644531 115.066406 39.0625 115.066406 59.300781 C 115.066406 79.539062 131.484375 95.957031 151.722656 95.957031 C 171.960938 95.957031 188.378906 79.539062 188.378906 59.300781 C 188.378906 39.0625 171.960938 22.644531 151.722656 22.644531 Z M 151.722656 29.15625 C 157.273438 29.15625 161.753906 33.652344 161.753906 39.191406 C 161.753906 44.726562 157.257812 49.222656 151.722656 49.222656 C 146.1875 49.222656 141.691406 44.726562 141.691406 39.191406 C 141.691406 33.652344 146.171875 29.15625 151.722656 29.15625 Z M 158.265625 58.132812 C 158.265625 58.820312 157.722656 59.363281 157.035156 59.363281 C 156.347656 59.363281 155.804688 58.820312 155.804688 58.132812 C 155.804688 57.445312 156.347656 56.902344 157.035156 56.902344 C 157.722656 56.902344 158.265625 57.445312 158.265625 58.132812 Z M 152.953125 52.804688 C 152.953125 53.492188 152.410156 54.035156 151.722656 54.035156 C 151.035156 54.035156 150.492188 53.492188 150.492188 52.804688 C 150.492188 52.117188 151.035156 51.574219 151.722656 51.574219 C 152.394531 51.574219 152.953125 52.132812 152.953125 52.804688 Z M 147.628906 58.132812 C 147.628906 58.820312 147.082031 59.363281 146.394531 59.363281 C 145.707031 59.363281 145.164062 58.820312 145.164062 58.132812 C 145.164062 57.445312 145.707031 56.902344 146.394531 56.902344 C 147.082031 56.902344 147.628906 57.445312 147.628906 58.132812 Z M 122.636719 53.652344 C 122.636719 48.117188 127.132812 43.621094 132.667969 43.621094 C 138.203125 43.621094 142.699219 48.117188 142.699219 53.652344 C 142.699219 59.1875 138.203125 63.683594 132.667969 63.683594 C 127.132812 63.683594 122.636719 59.203125 122.636719 53.652344 Z M 139.660156 85.460938 C 134.125 85.460938 129.628906 80.964844 129.628906 75.429688 C 129.628906 69.890625 134.125 65.398438 139.660156 65.398438 C 145.210938 65.398438 149.691406 69.890625 149.691406 75.429688 C 149.691406 80.964844 145.195312 85.460938 139.660156 85.460938 Z M 148.921875 58.132812 C 148.921875 56.582031 150.171875 55.332031 151.722656 55.332031 C 153.273438 55.332031 154.523438 56.582031 154.523438 58.132812 C 154.523438 59.683594 153.273438 60.933594 151.722656 60.933594 C 150.171875 60.933594 148.921875 59.667969 148.921875 58.132812 Z M 151.722656 64.675781 C 151.035156 64.675781 150.492188 64.132812 150.492188 63.445312 C 150.492188 62.757812 151.035156 62.210938 151.722656 62.210938 C 152.410156 62.210938 152.953125 62.757812 152.953125 63.445312 C 152.953125 64.132812 152.394531 64.675781 151.722656 64.675781 Z M 163.59375 85.460938 C 158.058594 85.460938 153.5625 80.964844 153.5625 75.429688 C 153.5625 69.890625 158.058594 65.398438 163.59375 65.398438 C 169.144531 65.398438 173.625 69.890625 173.625 75.429688 C 173.640625 80.964844 169.144531 85.460938 163.59375 85.460938 Z M 170.761719 63.699219 C 165.226562 63.699219 160.730469 59.203125 160.730469 53.667969 C 160.730469 48.132812 165.226562 43.621094 170.761719 43.621094 C 176.3125 43.621094 180.792969 48.117188 180.792969 53.652344 C 180.792969 59.1875 176.3125 63.699219 170.761719 63.699219 Z M 170.761719 63.699219 " fill-opacity="1" fill-rule="nonzero"/></g><path fill="#e6e6e6" d="M 151.964844 93.042969 C 133.355469 93.042969 118.203125 77.90625 118.203125 59.285156 C 118.203125 40.675781 133.339844 25.527344 151.964844 25.527344 C 170.570312 25.527344 185.722656 40.660156 185.722656 59.285156 C 185.707031 77.90625 170.570312 93.042969 151.964844 93.042969 Z M 151.964844 27.140625 C 134.234375 27.140625 119.804688 41.574219 119.804688 59.300781 C 119.804688 77.027344 134.234375 91.460938 151.964844 91.460938 C 169.691406 91.460938 184.121094 77.027344 184.121094 59.300781 C 184.105469 41.574219 169.691406 27.140625 151.964844 27.140625 Z M 151.964844 27.140625 " fill-opacity="1" fill-rule="nonzero"/><g clip-path="url(#1a79567dae)"><path fill="#000000" d="M 181.640625 183.277344 C 181.640625 183.277344 184.136719 189.179688 188.378906 189.003906 C 192.617188 188.8125 194.265625 187.292969 194.265625 187.292969 L 192.96875 197.117188 C 192.96875 197.117188 180.347656 197.46875 179.480469 186.042969 C 179.320312 183.867188 181.640625 183.277344 181.640625 183.277344 Z M 181.640625 183.277344 " fill-opacity="1" fill-rule="nonzero"/></g><path fill="#000000" d="M 176.90625 162.109375 C 176.90625 162.933594 176.867188 163.757812 176.785156 164.578125 C 176.703125 165.398438 176.582031 166.214844 176.421875 167.023438 C 176.261719 167.832031 176.0625 168.628906 175.820312 169.417969 C 175.582031 170.207031 175.304688 170.984375 174.988281 171.746094 C 174.671875 172.507812 174.320312 173.253906 173.933594 173.980469 C 173.542969 174.707031 173.121094 175.414062 172.660156 176.101562 C 172.203125 176.785156 171.714844 177.449219 171.191406 178.085938 C 170.667969 178.722656 170.113281 179.332031 169.53125 179.917969 C 168.945312 180.5 168.335938 181.050781 167.699219 181.574219 C 167.0625 182.097656 166.398438 182.589844 165.714844 183.046875 C 165.027344 183.507812 164.320312 183.929688 163.59375 184.320312 C 162.867188 184.707031 162.121094 185.058594 161.359375 185.375 C 160.597656 185.691406 159.824219 185.96875 159.035156 186.207031 C 158.242188 186.449219 157.445312 186.648438 156.636719 186.808594 C 155.828125 186.96875 155.011719 187.089844 154.191406 187.171875 C 153.371094 187.25 152.546875 187.292969 151.722656 187.292969 C 150.898438 187.292969 150.074219 187.25 149.253906 187.171875 C 148.433594 187.089844 147.617188 186.96875 146.808594 186.808594 C 146 186.648438 145.203125 186.449219 144.414062 186.207031 C 143.625 185.96875 142.847656 185.691406 142.085938 185.375 C 141.324219 185.058594 140.578125 184.707031 139.851562 184.320312 C 139.125 183.929688 138.417969 183.507812 137.730469 183.046875 C 137.046875 182.589844 136.382812 182.097656 135.746094 181.574219 C 135.109375 181.050781 134.5 180.5 133.914062 179.917969 C 133.332031 179.332031 132.78125 178.722656 132.257812 178.085938 C 131.734375 177.449219 131.242188 176.785156 130.785156 176.101562 C 130.324219 175.414062 129.902344 174.707031 129.511719 173.980469 C 129.125 173.253906 128.773438 172.507812 128.457031 171.746094 C 128.140625 170.984375 127.863281 170.207031 127.625 169.417969 C 127.382812 168.628906 127.183594 167.832031 127.023438 167.023438 C 126.863281 166.214844 126.742188 165.398438 126.660156 164.578125 C 126.582031 163.757812 126.539062 162.933594 126.539062 162.109375 C 126.539062 161.285156 126.582031 160.460938 126.660156 159.640625 C 126.742188 158.820312 126.863281 158.003906 127.023438 157.195312 C 127.183594 156.386719 127.382812 155.589844 127.625 154.796875 C 127.863281 154.007812 128.140625 153.234375 128.457031 152.472656 C 128.773438 151.710938 129.125 150.964844 129.511719 150.238281 C 129.902344 149.511719 130.324219 148.804688 130.785156 148.117188 C 131.242188 147.433594 131.734375 146.769531 132.257812 146.132812 C 132.78125 145.496094 133.332031 144.886719 133.914062 144.300781 C 134.5 143.71875 135.109375 143.164062 135.746094 142.640625 C 136.382812 142.117188 137.046875 141.628906 137.730469 141.171875 C 138.417969 140.710938 139.125 140.289062 139.851562 139.898438 C 140.578125 139.511719 141.324219 139.160156 142.085938 138.84375 C 142.847656 138.527344 143.625 138.25 144.414062 138.011719 C 145.203125 137.769531 146 137.570312 146.808594 137.410156 C 147.617188 137.25 148.433594 137.128906 149.253906 137.046875 C 150.074219 136.964844 150.898438 136.925781 151.722656 136.925781 C 152.546875 136.925781 153.371094 136.964844 154.191406 137.046875 C 155.011719 137.128906 155.828125 137.25 156.636719 137.410156 C 157.445312 137.570312 158.242188 137.769531 159.035156 138.011719 C 159.824219 138.25 160.597656 138.527344 161.359375 138.84375 C 162.121094 139.160156 162.867188 139.511719 163.59375 139.898438 C 164.320312 140.289062 165.027344 140.710938 165.714844 141.171875 C 166.398438 141.628906 167.0625 142.117188 167.699219 142.640625 C 168.335938 143.164062 168.945312 143.71875 169.53125 144.300781 C 170.113281 144.886719 170.667969 145.496094 171.191406 146.132812 C 171.714844 146.769531 172.203125 147.433594 172.660156 148.117188 C 173.121094 148.804688 173.542969 149.511719 173.933594 150.238281 C 174.320312 150.964844 174.671875 151.710938 174.988281 152.472656 C 175.304688 153.234375 175.582031 154.007812 175.820312 154.796875 C 176.0625 155.589844 176.261719 156.386719 176.421875 157.195312 C 176.582031 158.003906 176.703125 158.820312 176.785156 159.640625 C 176.867188 160.460938 176.90625 161.285156 176.90625 162.109375 Z M 176.90625 162.109375 " fill-opacity="1" fill-rule="nonzero"/><g clip-path="url(#26b8fb40a9)"><path fill="#ffffff" d="M 151.722656 125.453125 C 131.484375 125.453125 115.066406 141.871094 115.066406 162.109375 C 115.066406 182.347656 131.484375 198.765625 151.722656 198.765625 C 171.960938 198.765625 188.378906 182.347656 188.378906 162.109375 C 188.378906 141.871094 171.960938 125.453125 151.722656 125.453125 Z M 151.722656 131.964844 C 157.273438 131.964844 161.753906 136.460938 161.753906 141.996094 C 161.753906 147.535156 157.257812 152.03125 151.722656 152.03125 C 146.1875 152.03125 141.691406 147.535156 141.691406 141.996094 C 141.691406 136.460938 146.171875 131.964844 151.722656 131.964844 Z M 158.265625 160.941406 C 158.265625 161.628906 157.722656 162.171875 157.035156 162.171875 C 156.347656 162.171875 155.804688 161.628906 155.804688 160.941406 C 155.804688 160.253906 156.347656 159.710938 157.035156 159.710938 C 157.722656 159.710938 158.265625 160.253906 158.265625 160.941406 Z M 152.953125 155.613281 C 152.953125 156.300781 152.410156 156.84375 151.722656 156.84375 C 151.035156 156.84375 150.492188 156.300781 150.492188 155.613281 C 150.492188 154.925781 151.035156 154.382812 151.722656 154.382812 C 152.394531 154.382812 152.953125 154.941406 152.953125 155.613281 Z M 147.628906 160.941406 C 147.628906 161.628906 147.082031 162.171875 146.394531 162.171875 C 145.707031 162.171875 145.164062 161.628906 145.164062 160.941406 C 145.164062 160.253906 145.707031 159.710938 146.394531 159.710938 C 147.082031 159.710938 147.628906 160.253906 147.628906 160.941406 Z M 122.636719 156.460938 C 122.636719 150.925781 127.132812 146.429688 132.667969 146.429688 C 138.203125 146.429688 142.699219 150.925781 142.699219 156.460938 C 142.699219 161.996094 138.203125 166.492188 132.667969 166.492188 C 127.132812 166.492188 122.636719 162.011719 122.636719 156.460938 Z M 139.660156 188.269531 C 134.125 188.269531 129.628906 183.773438 129.628906 178.238281 C 129.628906 172.699219 134.125 168.203125 139.660156 168.203125 C 145.210938 168.203125 149.691406 172.699219 149.691406 178.238281 C 149.691406 183.773438 145.195312 188.269531 139.660156 188.269531 Z M 148.921875 160.941406 C 148.921875 159.390625 150.171875 158.140625 151.722656 158.140625 C 153.273438 158.140625 154.523438 159.390625 154.523438 160.941406 C 154.523438 162.492188 153.273438 163.742188 151.722656 163.742188 C 150.171875 163.742188 148.921875 162.476562 148.921875 160.941406 Z M 151.722656 167.484375 C 151.035156 167.484375 150.492188 166.941406 150.492188 166.253906 C 150.492188 165.566406 151.035156 165.019531 151.722656 165.019531 C 152.410156 165.019531 152.953125 165.566406 152.953125 166.253906 C 152.953125 166.941406 152.394531 167.484375 151.722656 167.484375 Z M 163.59375 188.269531 C 158.058594 188.269531 153.5625 183.773438 153.5625 178.238281 C 153.5625 172.699219 158.058594 168.203125 163.59375 168.203125 C 169.144531 168.203125 173.625 172.699219 173.625 178.238281 C 173.640625 183.773438 169.144531 188.269531 163.59375 188.269531 Z M 170.761719 166.507812 C 165.226562 166.507812 160.730469 162.011719 160.730469 156.476562 C 160.730469 150.941406 165.226562 146.429688 170.761719 146.429688 C 176.3125 146.429688 180.792969 150.925781 180.792969 156.460938 C 180.792969 161.996094 176.3125 166.507812 170.761719 166.507812 Z M 170.761719 166.507812 " fill-opacity="1" fill-rule="nonzero"/></g><path fill="#e6e6e6" d="M 151.964844 195.851562 C 133.355469 195.851562 118.203125 180.714844 118.203125 162.09375 C 118.203125 143.484375 133.339844 128.335938 151.964844 128.335938 C 170.570312 128.335938 185.722656 143.46875 185.722656 162.09375 C 185.707031 180.714844 170.570312 195.851562 151.964844 195.851562 Z M 151.964844 129.949219 C 134.234375 129.949219 119.804688 144.382812 119.804688 162.109375 C 119.804688 179.835938 134.234375 194.269531 151.964844 194.269531 C 169.691406 194.269531 184.121094 179.835938 184.121094 162.109375 C 184.105469 144.382812 169.691406 129.949219 151.964844 129.949219 Z M 151.964844 129.949219 " fill-opacity="1" fill-rule="nonzero"/></g></g></svg>